<svg xmlns="http://www.w3.org/2000/svg" width="66" height="58" viewBox="0 0 66 58"><g fill="none" fill-rule="evenodd"><path d="M-7-12h80v80H-7z"/><g stroke="#001D38" stroke-width="2"><path d="M33 55.956s31.498-18.911 31.498-37.798c0-9.54-7.938-25.69-31.498-10.565C9.762-8.207 1.502 8.81 1.502 18.158 1.502 37.045 33 55.956 33 55.956z"/><path stroke-linecap="round" stroke-linejoin="round" d="M9.38 24.138h9.83c.391 0 .735.26.842.636l1.485 5.238c.252.887 1.526.833 1.701-.072l2.445-12.637c.186-.96 1.566-.94 1.723.025l2.868 17.593c.147.905 1.412 1.002 1.695.129l2.227-6.862c.258-.795 1.377-.811 1.656-.023l2.792 7.858c.276.778 1.377.776 1.65-.003l3.192-9.107a.874.874 0 0 1 .826-.585h11.06"/></g></g></svg>