<svg xmlns="http://www.w3.org/2000/svg" width="75" height="53" viewBox="0 0 75 53"><g fill="none" fill-rule="evenodd"><path d="M-2-13h80v80H-2z"/><g stroke="#001D38" stroke-width="2"><path stroke-linecap="round" stroke-linejoin="round" d="M42 52H20c-7.853.209-14-6.366-14-14 0-7.532 6.147-13.988 14-14 .194.012.651-.001 1 0 3.177-8.167 11.091-14 20-14 9.368 0 17.108 5.534 20 13 8 1 13 8 13 15s-6 14-14 14H42z"/><path d="M27.011 8.979a17.085 17.085 0 0 0-12.892 3.433 17.08 17.08 0 0 0-6.461 11.15"/><path stroke-linecap="square" d="M2 17l1.88.684m1.25-7.88l1.576 1.231m4.447-7.136l1 1.732m8.265-3.646l-.07 1.999"/></g></g></svg>