<svg xmlns="http://www.w3.org/2000/svg" xmlns:xlink="http://www.w3.org/1999/xlink" width="326" height="61" viewBox="0 0 326 61"><defs><path id="a" d="M13.296 49.703V.138H.133v49.565z"/></defs><g fill="none" fill-rule="evenodd"><path fill="#0C1126" d="M128.928 57.097c-4.008-.031-8.24-1.922-11.057-4.937-2.62-2.814-4.18-6.865-4.64-12.036-.197-2.121-.14-5.681.004-8.272.245-4.99 1.977-9.656 4.635-12.49 2.899-3.126 6.624-4.798 11.08-4.974 1.389-.066 3.285-.078 5.897-.078 1.272 0 6.382.01 6.382.01 4.226.032 16.99.06 20.711.066v7.126l-19.977-.043c-1.896 0-8.074-.008-8.074-.008-2.266 0-3.84.01-4.688.055-4.52.24-8.775 5-9.288 10.396-.228 2.486-.222 5.191.017 8.518.414 5.334 4.04 9.075 9.237 9.537 1.14.115 3.703.17 8.055.17 3.278 0 7.203-.03 11.247-.06l.51-.005c3.758-.035 10.41-.078 12.961-.094v7.121c-3.346.007-14.206.027-22.637.027-5.853 0-9.343-.01-10.375-.029zm-50.835-.151V22.002H57.38V14.86h48.109v7.143H84.782v34.944zm-36.373.151c.014-4.803.068-24.041-.005-25.67-.299-5.492-3.968-9.582-8.922-9.955-1.704-.119-5.382-.197-9.159-.197-3.601 0-6.514.072-7.993.197-4.773.445-8.525 4.54-8.93 9.735-.164 2.37-.055 21.148-.025 25.89H0V0h6.708v18.066c2.17-2.579 5.573-3.553 9.031-3.71 1.353-.067 5.073-.113 9.05-.113 3.732 0 6.678.042 7.88.112 3.147.177 7.938 1.58 11.098 4.957 3.001 3.216 4.557 7.247 4.623 11.978.039 1.84.01 21.08.001 25.807H41.72zm244.138 1.056V14.271h-6.415V8.588h13.163v49.565z"/><g transform="translate(312.079 8.45)"><mask id="b" fill="#fff"><use xlink:href="#a"/></mask><path fill="#0C1126" d="M6.548 49.703V5.82H.133V.138h13.163v49.565z" mask="url(#b)"/></g><path fill="#0C1126" d="M231.454 60.76c-12.6 0-22.851-10.402-22.851-23.186V8.96h7.538v28.11c0 9.319 7.473 16.901 16.66 16.901h.617c9.186 0 16.66-7.582 16.66-16.902V8.96h7.538v28.614c0 12.784-10.25 23.185-22.85 23.185h-3.312z"/></g></svg>