<svg width="40" height="40" viewBox="0 0 40 40" xmlns="http://www.w3.org/2000/svg" xmlns:xlink="http://www.w3.org/1999/xlink" xmlns:figma="http://www.figma.com/figma/ns"><title>play-button</title><desc>Created using Figma</desc><g figma:type="canvas"><g figma:type="frame"><g figma:type="ellipse" transform="translate(800 595)"><mask id="b"><use xlink:href="#a" fill="#fff" transform="translate(-800 -595)"/></mask><g mask="url(#b)"><use xlink:href="#c" transform="translate(-800 -595)" fill="#FFF"/></g></g><use xlink:href="#d" transform="rotate(90 11 20)" fill="#FFF" figma:type="regular-polygon"/></g></g><defs><path id="a" d="M40 20c0 11.046-8.954 20-20 20S0 31.046 0 20 8.954 0 20 0s20 8.954 20 20z"/><path id="c" d="M37 20c0 9.389-7.611 17-17 17v6c12.703 0 23-10.297 23-23h-6zM20 37c-9.389 0-17-7.611-17-17h-6c0 12.703 10.297 23 23 23v-6zM3 20c0-9.389 7.611-17 17-17v-6C7.297-3-3 7.297-3 20h6zM20 3c9.389 0 17 7.611 17 17h6C43 7.297 32.703-3 20-3v6z"/><path id="d" d="M11 0l9.526 16.5H1.474L11 0z"/></defs></svg>