<?xml version="1.0" encoding="UTF-8" standalone="no"?>
<svg width="50px" height="50px" viewBox="0 0 50 50" version="1.1" xmlns="http://www.w3.org/2000/svg" xmlns:xlink="http://www.w3.org/1999/xlink">
    <!-- Generator: sketchtool 40.3 (33839) - http://www.bohemiancoding.com/sketch -->
    <title>CD825BC3-CB6C-451E-BB20-4DF32805BE92</title>
    <desc>Created with sketchtool.</desc>
    <defs></defs>
    <g id="Symbols" stroke="none" stroke-width="1" fill="none" fill-rule="evenodd" stroke-linecap="round" stroke-linejoin="round">
        <g id="Get-a-repair" stroke="#000000" stroke-width="2">
            <g id="Page-1" transform="translate(11.000000, 9.000000)">
                <path d="M22,10 L22,3.00032973 C22,1.34329338 20.6641758,0 18.9900453,0 L7.94663394,0 C7.39473291,0 6.63076369,0.330352539 6.25579332,0.721654175 L0.691535412,6.52825479 C0.30961095,6.92681338 0,7.70419053 0,8.24098317 L0,25.9985785 C0,27.6562178 1.33902013,29 3.00166547,29 L8,29" id="Stroke-1"></path>
                <path d="M1,8 L4.99074554,8 C6.65271089,8 8,6.65032959 8,4.99074554 L8,1" id="Stroke-3"></path>
                <path d="M31.532898,14.6492281 C31.3941024,14.2917842 30.9282597,14.1981679 30.6575817,14.4689104 L27.8034978,17.3236742 C27.0621911,18.0651575 25.8917348,18.2789855 25.0004651,17.7263305 C23.7709808,16.9635708 23.5944286,15.2699677 24.5622752,14.3018905 L27.5264384,11.3370212 C27.7971164,11.0662788 27.7029906,10.6003252 27.3461637,10.4614965 C24.774457,9.46363236 21.8772985,10.1072441 19.8182314,12.1668017 C17.8926421,14.0928497 17.2300394,16.7694234 18.0761075,19.3204663 C18.1399216,19.5135498 18.0968471,19.7252502 17.9532655,19.8688661 L8.31149239,29.5129358 C7.8961692,29.9283579 7.8961692,30.6017566 8.31149239,31.0171788 L10.9821109,33.6884334 C11.3974341,34.1038555 12.0706725,34.1038555 12.4859956,33.6884334 L22.1208555,24.0518104 C22.2644372,23.9076627 22.4766189,23.8651098 22.6691247,23.9289391 C25.2190283,24.7784002 27.9157042,24.1289375 29.8466114,22.1975703 C31.9056784,20.1380128 32.5337152,17.2242069 31.532898,14.6492281 Z" id="Stroke-5"></path>
            </g>
        </g>
    </g>
</svg>