<?xml version="1.0" encoding="UTF-8" standalone="no"?>
<svg width="36px" height="32px" viewBox="0 0 36 32" version="1.1" xmlns="http://www.w3.org/2000/svg" xmlns:xlink="http://www.w3.org/1999/xlink">
    <!-- Generator: sketchtool 40.3 (33839) - http://www.bohemiancoding.com/sketch -->
    <title>11C99D87-B299-4184-83E3-E7142801CFCE</title>
    <desc>Created with sketchtool.</desc>
    <defs></defs>
    <g id="Page-1" stroke="none" stroke-width="1" fill="none" fill-rule="evenodd">
        <g id="Mobile_icons" transform="translate(-479.000000, -1355.000000)">
            <g id="Camera_selected" transform="translate(472.000000, 1346.000000)">
                <g id="Camera_se;ected" transform="translate(8.000000, 10.000000)">
                    <path d="M4.99714124,6.38297872 C2.23729634,6.38297872 0,8.62610254 0,11.3915415 L0,24.9914372 C0,27.7575901 2.23083496,30 4.99854806,30 L29.0014519,30 C31.7620738,30 34,27.7568762 34,24.9914372 L34,11.3915415 C34,8.62538866 31.7633622,6.38297872 29.0028588,6.38297872 L27.8171364,6.38297872 C26.7112847,6.38297872 25.5600709,5.52214181 25.2480859,4.46787464 L24.7764331,2.8740544 C24.306711,1.28675798 22.5851661,-5.32907052e-15 20.9202804,-5.32907052e-15 L13.0797196,-5.32907052e-15 C11.4197474,-5.32907052e-15 9.69182922,1.29169099 9.22356687,2.8740544 L8.75191413,4.46787464 C8.43891838,5.52555742 7.29364536,6.38297872 6.18286363,6.38297872 L4.99714124,6.38297872 Z" id="Combined-Shape" stroke="#0DA8AB" stroke-width="2"></path>
                    <ellipse id="Oval" stroke="#0DA8AB" stroke-width="2" cx="17" cy="17" rx="7" ry="7"></ellipse>
                    <ellipse id="Oval-2" fill="#0DA8AB" cx="5.0163207" cy="11.1387795" rx="1.00326414" ry="1.01261632"></ellipse>
                </g>
            </g>
        </g>
    </g>
</svg>