<?xml version="1.0" encoding="UTF-8" standalone="no"?>
<svg width="46px" height="52px" viewBox="0 0 46 52" version="1.1" xmlns="http://www.w3.org/2000/svg" xmlns:xlink="http://www.w3.org/1999/xlink">
    <!-- Generator: sketchtool 40.3 (33839) - http://www.bohemiancoding.com/sketch -->
    <title>7728D93C-3E6F-44FD-94A9-089BD9ABF355</title>
    <desc>Created with sketchtool.</desc>
    <defs></defs>
    <g id="Page-1" stroke="none" stroke-width="1" fill="none" fill-rule="evenodd" stroke-linecap="round" stroke-linejoin="round">
        <g id="desktop_icons" transform="translate(-598.000000, -1000.000000)" stroke="#000000">
            <g id="Update" transform="translate(586.000000, 991.000000)">
                <g id="Page-1" transform="translate(13.000000, 10.000000)">
                    <path d="M14,6 L4.99502911,6 C2.23635074,6 4.61985097e-08,8.24245787 4.31427102e-08,11.0045213 L5.53692914e-09,44.9954787 C2.47907471e-09,47.7593995 2.24245787,50 5.00452127,50 L38.9954787,50 C41.7593995,50 44,47.7575421 44,44.9954787 L44,11.0045213 C44,8.24060053 41.7661779,6.00000003 39.0049709,6.00000003 L30,6" id="Stroke-1" stroke-width="2"></path>
                    <path d="M22,0 L22,32" id="Stroke-3" stroke-width="2"></path>
                    <polyline id="Stroke-5" stroke-width="2" points="29.0000003 25 21.9999998 31.9999999 15 25"></polyline>
                    <path d="M10,41 L34,41" id="Stroke-7" stroke-width="2"></path>
                </g>
            </g>
        </g>
    </g>
</svg>