<?xml version="1.0" encoding="UTF-8" standalone="no"?>
<svg width="68px" height="48px" viewBox="0 0 68 48" version="1.1" xmlns="http://www.w3.org/2000/svg" xmlns:xlink="http://www.w3.org/1999/xlink">
    <!-- Generator: sketchtool 42 (36781) - http://www.bohemiancoding.com/sketch -->
    <title>A2993AF7-E710-46B4-BB74-BD9E09F7E5F1</title>
    <desc>Created with sketchtool.</desc>
    <defs></defs>
    <g id="Page-1" stroke="none" stroke-width="1" fill="none" fill-rule="evenodd" stroke-linecap="round" stroke-linejoin="round">
        <g id="desktop_icons" transform="translate(-488.000000, -1755.000000)" stroke="#000000">
            <g id="bring_in_for_repair" transform="translate(486.000000, 1744.000000)">
                <g id="Page-1" transform="translate(3.000000, 12.000000)">
                    <path d="M40,40.9999995 L47.9942017,40.9999999 C49.6542582,40.9999999 51,39.6526091 51,38.0031303 L51,32" id="Stroke-1" stroke-width="2"></path>
                    <path d="M3,14 L3,38.0073661 C3,39.6601521 4.34410858,41 5.99075223,41 L28,41" id="Stroke-3" stroke-width="2"></path>
                    <path d="M43.9999984,14.0000001 L2.00473238,14.0000001 C0.897438805,14.0000001 -0.000199998507,13.1029336 -0.000199998507,11.9941271 L-0.000199998507,2.00577301 C-0.000199998507,0.897959935 0.885998733,-0.0001 2.00611655,-0.0001 L52.9936818,-0.0001 C54.1017399,-0.0001 54.9999984,0.886617451 54.9999984,1.99802636 L54.9999984,8.00000014" id="Stroke-5" stroke-width="2"></path>
                    <path d="M62.2645,28.11 C65.5715,24.803 66.5845,20.128 64.9885,15.992 C64.7625,15.404 63.9945,15.25 63.5495,15.695 L59.4315,19.949 C58.2375,21.142 56.3535,21.486 54.9195,20.596 C52.9415,19.369 52.6575,16.644 54.2145,15.087 L58.5095,10.656 C58.9555,10.211 58.8015,9.443 58.2125,9.216 C54.0805,7.626 49.4315,8.664 46.1245,11.97 C43.0475,15.048 41.9745,19.317 43.2935,23.396 C43.4105,23.759 43.3295,24.157 43.0595,24.426 L28.7795,38.707 C27.9985,39.488 27.9985,40.754 28.7795,41.535 L32.6695,45.426 C33.4505,46.207 34.7175,46.207 35.4985,45.426 L49.7675,31.157 C50.0375,30.887 50.4355,30.806 50.7985,30.924 C54.8765,32.248 59.1785,31.196 62.2645,28.11 L62.2645,28.11 Z" id="Stroke-7" stroke-width="2"></path>
                </g>
            </g>
        </g>
    </g>
</svg>