<svg xmlns="http://www.w3.org/2000/svg" width="72" height="53" viewBox="0 0 72 53">
    <g fill="none" fill-rule="evenodd" stroke-linejoin="round" stroke-width="2">
        <g stroke="#221F20" stroke-linecap="round">
            <path d="M49.776 43.275H66.25M1.663 43.275h35.351"/>
        </g>
        <path stroke="#221F20" d="M58.329 16.931v-4.993H8.893v31.338h13.31V25.558h22.815v9.604"/>
        <path stroke="#221F20" d="M8.893 15.618V4.555c0-1.656 1.352-3 3.004-3h43.427a3.006 3.006 0 0 1 3.005 3v8.063M57.02 37.324v5.295"/>
        <path stroke="#221F20" stroke-linecap="round" d="M33.956 25.559v17.06"/>
        <path stroke="#020302" stroke-linecap="round" d="M69.502 23.438c-.203-.517-.884-.654-1.278-.26l-4.17 4.134c-1.085 1.075-2.794 1.386-4.096.584-1.797-1.105-2.054-3.558-.641-4.96l4.332-4.297a.774.774 0 0 0-.265-1.27c-3.756-1.445-7.99-.512-11 2.473-2.812 2.79-3.78 6.668-2.544 10.364.093.28.03.587-.18.795L35.573 44.975a1.53 1.53 0 0 0 0 2.18l3.901 3.87a1.561 1.561 0 0 0 2.198 0L55.75 37.061a.78.78 0 0 1 .8-.178c3.727 1.23 7.667.29 10.489-2.51 3.008-2.983 3.926-7.205 2.463-10.936z"/>
    </g>
</svg>
