<?xml version="1.0" encoding="UTF-8" standalone="no"?>
<svg width="62px" height="50px" viewBox="0 0 62 50" version="1.1" xmlns="http://www.w3.org/2000/svg" xmlns:xlink="http://www.w3.org/1999/xlink">
    <!-- Generator: sketchtool 41 (35326) - http://www.bohemiancoding.com/sketch -->
    <title>D2555938-59D5-4670-8087-53603EC879BA</title>
    <desc>Created with sketchtool.</desc>
    <defs></defs>
    <g id="Page-1" stroke="none" stroke-width="1" fill="none" fill-rule="evenodd">
        <g id="desktop_icons" transform="translate(-390.000000, -1755.000000)" stroke="#000000">
            <g id="schedule_a_call" transform="translate(386.000000, 1744.000000)">
                <g id="Page-1" transform="translate(5.000000, 11.000000)">
                    <path d="M22.2573,5.5158 L33.7233,5.5158" id="Stroke-1" stroke-width="2"></path>
                    <g id="Group-14" transform="translate(0.000000, 0.806800)" stroke-width="2">
                        <path d="M13.9809,4.709 L1.9999,4.709 C0.8959,4.709 -0.0001,5.604 -0.0001,6.709 L-0.0001,40.509 C-0.0001,41.614 0.8959,42.509 1.9999,42.509 L24.1729,42.509" id="Stroke-2" stroke-linecap="round"></path>
                        <path d="M56,29.9121 L56,40.5091 C56,41.6131 55.105,42.5091 54,42.5091 L44.236,42.5091" id="Stroke-4" stroke-linecap="round"></path>
                        <path d="M42.0609,4.709 L53.9999,4.709 C55.1049,4.709 55.9999,5.604 55.9999,6.709 L55.9999,13.8" id="Stroke-6" stroke-linecap="round"></path>
                        <path d="M21.3189,7.9291 L15.5829,7.9291 C15.0309,7.9291 14.5829,7.4811 14.5829,6.9291 L14.5829,1.1931 C14.5829,0.6411 15.0309,0.1931 15.5829,0.1931 L21.3189,0.1931 C21.8709,0.1931 22.3189,0.6411 22.3189,1.1931 L22.3189,6.9291 C22.3189,7.4811 21.8709,7.9291 21.3189,7.9291 L21.3189,7.9291 Z" id="Stroke-8"></path>
                        <path d="M40.417,7.9291 L34.681,7.9291 C34.129,7.9291 33.681,7.4811 33.681,6.9291 L33.681,1.1931 C33.681,0.6411 34.129,0.1931 34.681,0.1931 L40.417,0.1931 C40.969,0.1931 41.417,0.6411 41.417,1.1931 L41.417,6.9291 C41.417,7.4811 40.969,7.9291 40.417,7.9291 L40.417,7.9291 Z" id="Stroke-10"></path>
                        <path d="M50.9139,12.0387 L45.4359,18.4957 C44.7209,19.3377 44.8249,20.5997 45.6669,21.3147 L49.2349,24.3417 C49.5139,24.5787 49.6619,24.9537 49.5679,25.3067 C49.3869,25.9787 48.9429,26.7477 48.6199,27.2517 C47.7419,28.6067 46.2529,30.3497 44.2789,32.3547 C40.1079,36.5657 38.0369,37.5807 37.0379,37.6917 C36.7189,37.7277 36.4069,37.5847 36.1989,37.3397 L33.1889,33.7917 C32.4739,32.9497 31.2119,32.8467 30.3699,33.5607 L23.8989,39.0517 C23.0519,39.7707 22.9529,41.0417 23.6779,41.8827 L28.2329,47.1667 C29.8149,48.3697 32.8619,48.2717 36.5339,46.8657 C40.8279,45.2217 45.4959,41.9987 49.6819,37.7737 C53.8559,33.5607 57.0349,28.8627 58.6379,24.5527 C59.3689,22.5897 59.7299,20.7947 59.7229,19.3127 C59.7169,18.1257 59.4659,17.1467 58.9849,16.4237 L53.7589,11.8307 C52.9189,11.0917 51.6369,11.1857 50.9139,12.0387 L50.9139,12.0387 Z" id="Stroke-12" stroke-linecap="round" stroke-linejoin="round"></path>
                    </g>
                </g>
            </g>
        </g>
    </g>
</svg>