<?xml version="1.0" encoding="UTF-8" standalone="no"?>
<svg width="57px" height="70px" viewBox="0 0 57 70" version="1.1" xmlns="http://www.w3.org/2000/svg" xmlns:xlink="http://www.w3.org/1999/xlink">
    <!-- Generator: sketchtool 40.3 (33839) - http://www.bohemiancoding.com/sketch -->
    <title>F3409CAD-2D1A-476E-B291-09142876F914</title>
    <desc>Created with sketchtool.</desc>
    <defs></defs>
    <g id="Page-1" stroke="none" stroke-width="1" fill="none" fill-rule="evenodd">
        <g id="desktop_icons" transform="translate(-692.000000, -1364.000000)">
            <g id="accessories_selected" transform="translate(686.000000, 1364.000000)">
                <path d="M14,1 C14,1 15.7842933,1 17.990053,1 L34.009947,1 C36.2135924,1 38,2.79568082 38,5.0065556 L38,56.9934444 C38,59.206204 36.214822,61 34.0017777,61 L31.7703141,61 L12.0054304,61 C9.79329228,61 8,59.2046438 8,57 L8,53" id="Rectangle-11" stroke="#0DA8AB" stroke-width="2" transform="translate(23.000000, 31.000000) rotate(-180.000000) translate(-23.000000, -31.000000) "></path>
                <rect id="Rectangle-11-Copy" stroke="#0DA8AB" stroke-width="2" x="32" y="9" width="30" height="60" rx="4"></rect>
                <circle id="Oval-5" fill="#0DA8AB" fill-rule="evenodd" cx="37" cy="13" r="1"></circle>
                <circle id="Oval-5-Copy-6" fill="#0DA8AB" fill-rule="evenodd" cx="37" cy="17" r="1"></circle>
                <circle id="Oval-5-Copy" fill="#0DA8AB" fill-rule="evenodd" cx="41" cy="13" r="1"></circle>
                <circle id="Oval-5-Copy-7" fill="#0DA8AB" fill-rule="evenodd" cx="41" cy="17" r="1"></circle>
                <circle id="Oval-5-Copy-2" fill="#0DA8AB" fill-rule="evenodd" cx="45" cy="13" r="1"></circle>
                <circle id="Oval-5-Copy-8" fill="#0DA8AB" fill-rule="evenodd" cx="45" cy="17" r="1"></circle>
                <circle id="Oval-5-Copy-3" fill="#0DA8AB" fill-rule="evenodd" cx="49" cy="13" r="1"></circle>
                <circle id="Oval-5-Copy-9" fill="#0DA8AB" fill-rule="evenodd" cx="49" cy="17" r="1"></circle>
                <circle id="Oval-5-Copy-4" fill="#0DA8AB" fill-rule="evenodd" cx="53" cy="13" r="1"></circle>
                <circle id="Oval-5-Copy-10" fill="#0DA8AB" fill-rule="evenodd" cx="53" cy="17" r="1"></circle>
                <circle id="Oval-5-Copy-5" fill="#0DA8AB" fill-rule="evenodd" cx="57" cy="13" r="1"></circle>
                <circle id="Oval-5-Copy-11" fill="#0DA8AB" fill-rule="evenodd" cx="57" cy="17" r="1"></circle>
                <circle id="Oval-5-Copy-17" fill="#0DA8AB" fill-rule="evenodd" cx="37" cy="21" r="1"></circle>
                <circle id="Oval-5-Copy-16" fill="#0DA8AB" fill-rule="evenodd" cx="41" cy="21" r="1"></circle>
                <circle id="Oval-5-Copy-15" fill="#0DA8AB" fill-rule="evenodd" cx="45" cy="21" r="1"></circle>
                <circle id="Oval-5-Copy-14" fill="#0DA8AB" fill-rule="evenodd" cx="49" cy="21" r="1"></circle>
                <circle id="Oval-5-Copy-13" fill="#0DA8AB" fill-rule="evenodd" cx="53" cy="21" r="1"></circle>
                <circle id="Oval-5-Copy-12" fill="#0DA8AB" fill-rule="evenodd" cx="57" cy="21" r="1"></circle>
                <circle id="Oval-5-Copy-23" fill="#0DA8AB" fill-rule="evenodd" cx="37" cy="25" r="1"></circle>
                <circle id="Oval-5-Copy-22" fill="#0DA8AB" fill-rule="evenodd" cx="41" cy="25" r="1"></circle>
                <circle id="Oval-5-Copy-21" fill="#0DA8AB" fill-rule="evenodd" cx="45" cy="25" r="1"></circle>
                <circle id="Oval-5-Copy-20" fill="#0DA8AB" fill-rule="evenodd" cx="49" cy="25" r="1"></circle>
                <circle id="Oval-5-Copy-19" fill="#0DA8AB" fill-rule="evenodd" cx="53" cy="25" r="1"></circle>
                <circle id="Oval-5-Copy-18" fill="#0DA8AB" fill-rule="evenodd" cx="57" cy="25" r="1"></circle>
                <circle id="Oval-5-Copy-29" fill="#0DA8AB" fill-rule="evenodd" cx="37" cy="29" r="1"></circle>
                <circle id="Oval-5-Copy-28" fill="#0DA8AB" fill-rule="evenodd" cx="41" cy="29" r="1"></circle>
                <circle id="Oval-5-Copy-27" fill="#0DA8AB" fill-rule="evenodd" cx="45" cy="29" r="1"></circle>
                <circle id="Oval-5-Copy-26" fill="#0DA8AB" fill-rule="evenodd" cx="49" cy="29" r="1"></circle>
                <circle id="Oval-5-Copy-25" fill="#0DA8AB" fill-rule="evenodd" cx="53" cy="29" r="1"></circle>
                <circle id="Oval-5-Copy-24" fill="#0DA8AB" fill-rule="evenodd" cx="57" cy="29" r="1"></circle>
                <circle id="Oval-5-Copy-35" fill="#0DA8AB" fill-rule="evenodd" cx="37" cy="33" r="1"></circle>
                <circle id="Oval-5-Copy-34" fill="#0DA8AB" fill-rule="evenodd" cx="41" cy="33" r="1"></circle>
                <circle id="Oval-5-Copy-33" fill="#0DA8AB" fill-rule="evenodd" cx="45" cy="33" r="1"></circle>
                <circle id="Oval-5-Copy-32" fill="#0DA8AB" fill-rule="evenodd" cx="49" cy="33" r="1"></circle>
                <circle id="Oval-5-Copy-31" fill="#0DA8AB" fill-rule="evenodd" cx="53" cy="33" r="1"></circle>
                <circle id="Oval-5-Copy-30" fill="#0DA8AB" fill-rule="evenodd" cx="57" cy="33" r="1"></circle>
                <circle id="Oval-5-Copy-41" fill="#0DA8AB" fill-rule="evenodd" cx="37" cy="37" r="1"></circle>
                <circle id="Oval-5-Copy-40" fill="#0DA8AB" fill-rule="evenodd" cx="41" cy="37" r="1"></circle>
                <circle id="Oval-5-Copy-39" fill="#0DA8AB" fill-rule="evenodd" cx="45" cy="37" r="1"></circle>
                <circle id="Oval-5-Copy-38" fill="#0DA8AB" fill-rule="evenodd" cx="49" cy="37" r="1"></circle>
                <circle id="Oval-5-Copy-37" fill="#0DA8AB" fill-rule="evenodd" cx="53" cy="37" r="1"></circle>
                <circle id="Oval-5-Copy-36" fill="#0DA8AB" fill-rule="evenodd" cx="57" cy="37" r="1"></circle>
                <circle id="Oval-5-Copy-47" fill="#0DA8AB" fill-rule="evenodd" cx="37" cy="41" r="1"></circle>
                <circle id="Oval-5-Copy-46" fill="#0DA8AB" fill-rule="evenodd" cx="41" cy="41" r="1"></circle>
                <circle id="Oval-5-Copy-45" fill="#0DA8AB" fill-rule="evenodd" cx="45" cy="41" r="1"></circle>
                <circle id="Oval-5-Copy-44" fill="#0DA8AB" fill-rule="evenodd" cx="49" cy="41" r="1"></circle>
                <circle id="Oval-5-Copy-43" fill="#0DA8AB" fill-rule="evenodd" cx="53" cy="41" r="1"></circle>
                <circle id="Oval-5-Copy-42" fill="#0DA8AB" fill-rule="evenodd" cx="57" cy="41" r="1"></circle>
                <circle id="Oval-5-Copy-53" fill="#0DA8AB" fill-rule="evenodd" cx="37" cy="45" r="1"></circle>
                <circle id="Oval-5-Copy-52" fill="#0DA8AB" fill-rule="evenodd" cx="41" cy="45" r="1"></circle>
                <circle id="Oval-5-Copy-51" fill="#0DA8AB" fill-rule="evenodd" cx="45" cy="45" r="1"></circle>
                <circle id="Oval-5-Copy-50" fill="#0DA8AB" fill-rule="evenodd" cx="49" cy="45" r="1"></circle>
                <circle id="Oval-5-Copy-49" fill="#0DA8AB" fill-rule="evenodd" cx="53" cy="45" r="1"></circle>
                <circle id="Oval-5-Copy-48" fill="#0DA8AB" fill-rule="evenodd" cx="57" cy="45" r="1"></circle>
                <circle id="Oval-5-Copy-59" fill="#0DA8AB" fill-rule="evenodd" cx="37" cy="49" r="1"></circle>
                <circle id="Oval-5-Copy-58" fill="#0DA8AB" fill-rule="evenodd" cx="41" cy="49" r="1"></circle>
                <circle id="Oval-5-Copy-57" fill="#0DA8AB" fill-rule="evenodd" cx="45" cy="49" r="1"></circle>
                <circle id="Oval-5-Copy-56" fill="#0DA8AB" fill-rule="evenodd" cx="49" cy="49" r="1"></circle>
                <circle id="Oval-5-Copy-55" fill="#0DA8AB" fill-rule="evenodd" cx="53" cy="49" r="1"></circle>
                <circle id="Oval-5-Copy-54" fill="#0DA8AB" fill-rule="evenodd" cx="57" cy="49" r="1"></circle>
                <circle id="Oval-5-Copy-65" fill="#0DA8AB" fill-rule="evenodd" cx="37" cy="53" r="1"></circle>
                <circle id="Oval-5-Copy-64" fill="#0DA8AB" fill-rule="evenodd" cx="41" cy="53" r="1"></circle>
                <circle id="Oval-5-Copy-63" fill="#0DA8AB" fill-rule="evenodd" cx="45" cy="53" r="1"></circle>
                <circle id="Oval-5-Copy-62" fill="#0DA8AB" fill-rule="evenodd" cx="49" cy="53" r="1"></circle>
                <circle id="Oval-5-Copy-61" fill="#0DA8AB" fill-rule="evenodd" cx="53" cy="53" r="1"></circle>
                <circle id="Oval-5-Copy-60" fill="#0DA8AB" fill-rule="evenodd" cx="57" cy="53" r="1"></circle>
                <circle id="Oval-5-Copy-71" fill="#0DA8AB" fill-rule="evenodd" cx="37" cy="57" r="1"></circle>
                <circle id="Oval-5-Copy-70" fill="#0DA8AB" fill-rule="evenodd" cx="41" cy="57" r="1"></circle>
                <circle id="Oval-5-Copy-69" fill="#0DA8AB" fill-rule="evenodd" cx="45" cy="57" r="1"></circle>
                <circle id="Oval-5-Copy-68" fill="#0DA8AB" fill-rule="evenodd" cx="49" cy="57" r="1"></circle>
                <circle id="Oval-5-Copy-67" fill="#0DA8AB" fill-rule="evenodd" cx="53" cy="57" r="1"></circle>
                <circle id="Oval-5-Copy-66" fill="#0DA8AB" fill-rule="evenodd" cx="57" cy="57" r="1"></circle>
                <circle id="Oval-5-Copy-77" fill="#0DA8AB" fill-rule="evenodd" cx="37" cy="61" r="1"></circle>
                <circle id="Oval-5-Copy-76" fill="#0DA8AB" fill-rule="evenodd" cx="41" cy="61" r="1"></circle>
                <circle id="Oval-5-Copy-75" fill="#0DA8AB" fill-rule="evenodd" cx="45" cy="61" r="1"></circle>
                <circle id="Oval-5-Copy-74" fill="#0DA8AB" fill-rule="evenodd" cx="49" cy="61" r="1"></circle>
                <circle id="Oval-5-Copy-73" fill="#0DA8AB" fill-rule="evenodd" cx="53" cy="61" r="1"></circle>
                <circle id="Oval-5-Copy-72" fill="#0DA8AB" fill-rule="evenodd" cx="57" cy="61" r="1"></circle>
                <circle id="Oval-5-Copy-83" fill="#0DA8AB" fill-rule="evenodd" cx="37" cy="65" r="1"></circle>
                <circle id="Oval-5-Copy-82" fill="#0DA8AB" fill-rule="evenodd" cx="41" cy="65" r="1"></circle>
                <circle id="Oval-5-Copy-81" fill="#0DA8AB" fill-rule="evenodd" cx="45" cy="65" r="1"></circle>
                <circle id="Oval-5-Copy-80" fill="#0DA8AB" fill-rule="evenodd" cx="49" cy="65" r="1"></circle>
                <circle id="Oval-5-Copy-79" fill="#0DA8AB" fill-rule="evenodd" cx="53" cy="65" r="1"></circle>
                <circle id="Oval-5-Copy-78" fill="#0DA8AB" fill-rule="evenodd" cx="57" cy="65" r="1"></circle>
                <rect id="Rectangle-13" stroke="#0DA8AB" stroke-width="2" x="12" y="5" width="4" height="7" rx="2"></rect>
            </g>
        </g>
    </g>
</svg>