<?xml version="1.0" encoding="UTF-8" standalone="no"?>
<svg width="45px" height="70px" viewBox="0 0 45 70" version="1.1" xmlns="http://www.w3.org/2000/svg" xmlns:xlink="http://www.w3.org/1999/xlink">
    <!-- Generator: sketchtool 40.3 (33839) - http://www.bohemiancoding.com/sketch -->
    <title>2B09D04E-B25D-4F75-9FD0-D1F392040E5B</title>
    <desc>Created with sketchtool.</desc>
    <defs></defs>
    <g id="Page-1" stroke="none" stroke-width="1" fill="none" fill-rule="evenodd">
        <g id="desktop_icons" transform="translate(-498.000000, -1364.000000)" stroke="#0DA8AB" stroke-width="2">
            <g id="re_camera_selected" transform="translate(486.000000, 1364.000000)">
                <path d="M35.9956186,16.0598798 L36,16 L36,13.0005775 C36,6.37284157 30.6272169,1 23.9907535,1 L16.9728449,1.06109908 C14.7359597,1.5831102 13,5.38609999 13,10 C13,14.6139 14.7359597,18.4168898 16.9728449,18.9389009 L18.9906311,19 C19.5480902,19 20,19.4532303 20,19.9968754 L20,54.9971408 C20,56.1032894 20.8935426,57 22.0027601,57 L32,57 L32,24.996221 C32,21.4461802 33.5425916,18.2563041 35.9956186,16.0598798 Z" id="Combined-Shape" stroke-linejoin="round"></path>
                <path d="M44.0092465,13 C37.3727831,13 32,18.3708911 32,24.996221 L32,67.0069304 C32,68.0976918 32.8927712,69 33.9940603,69 L46.0059397,69 C47.1054862,69 48,68.1032894 48,66.9971408 L48,32.00034 C48,31.4478675 48.4383446,31 48.9911322,31 L51.5,31 C53.9852814,31 56,26.9705627 56,22 C56,17.0294373 53.9852814,13 51.5,13 L44.0092465,13 Z" id="Combined-Shape" stroke-linejoin="round"></path>
                <ellipse id="Oval" cx="51.5" cy="22" rx="4.5" ry="9"></ellipse>
                <ellipse id="Oval" cx="51.5" cy="22" rx="1.5" ry="5"></ellipse>
                <path d="M32,64 L48,64" id="Line" stroke-linecap="square"></path>
                <path d="M20,52 L32,52" id="Line-Copy" stroke-linecap="square"></path>
            </g>
        </g>
    </g>
</svg>