<?xml version="1.0" encoding="UTF-8" standalone="no"?>
<svg width="100px" height="100px" viewBox="0 0 100 100" version="1.1" xmlns="http://www.w3.org/2000/svg" xmlns:xlink="http://www.w3.org/1999/xlink">
    <!-- Generator: sketchtool 41.1 (35376) - http://www.bohemiancoding.com/sketch -->
    <title>FD0C1176-6175-4754-96A6-FD9931497C39</title>
    <desc>Created with sketchtool.</desc>
    <defs>
        <path d="M11,11.3910527 C13.694914,12.4260918 16.669266,13 19.7953751,13 C22.6947465,13 25.4635765,12.5063241 28,11.6089473 C25.305086,10.5739082 22.330734,10 19.2046249,10 C16.3052535,10 13.5364235,10.4936759 11,11.3910527 L11,11.3910527 Z" id="path-1"></path>
        <mask id="mask-2" maskContentUnits="userSpaceOnUse" maskUnits="objectBoundingBox" x="0" y="0" width="17" height="3" fill="white">
            <use xlink:href="#path-1"></use>
        </mask>
    </defs>
    <g id="Symbols" stroke="none" stroke-width="1" fill="none" fill-rule="evenodd">
        <g id="accessories_icon-copy-2">
            <g id="Group" transform="translate(5.000000, 4.000000)" stroke="#000000" stroke-width="2">
                <circle id="Oval-9" fill="#666666" cx="45" cy="45" r="45"></circle>
                <path d="M78.2591986,15 C70.0887643,5.8712703 58.2152881,0.126290493 45,0.126290493 C31.7847119,0.126290493 19.9112357,5.8712703 11.7408014,15 L78.2591986,15 L78.2591986,15 Z" id="Combined-Shape" fill="#333333"></path>
                <circle id="Oval-9" fill="#333333" cx="45" cy="45" r="5"></circle>
                <path d="M0,45 L39,45" id="Line" stroke-linecap="square"></path>
                <path d="M50,45 L90,45" id="Line-Copy" stroke-linecap="square"></path>
                <path d="M45,16 L45,40" id="Line" stroke-linecap="square"></path>
                <path d="M45,51 L45,89" id="Line-Copy-2" stroke-linecap="square"></path>
            </g>
            <g id="Group-3" transform="translate(62.000000, 21.000000)">
                <path d="M26.5,23 C29.5375661,23 32,17.8512746 32,11.5 C32,5.14872538 29.5375661,0 26.5,0 L15.9937905,0 C7.16066391,0 0,7.16266888 0,15.9999372 L0,69.9952008 C0,72.2069903 1.80035233,74 4.00955791,74 L17.9904421,74 C20.2048598,74 22,72.2147869 22,69.9981155 L22,23.9958767 C22,23.4458692 22.4485601,23 23.0097535,23 L26.5,23 Z" id="Combined-Shape" stroke="#000000" stroke-width="2" fill="#8AD0C7"></path>
                <ellipse id="Oval-Copy" stroke="#000000" stroke-width="2" fill="#C6F5EF" cx="26.5" cy="11.5" rx="5.5" ry="11.5"></ellipse>
                <ellipse id="Oval-Copy" fill="#000000" cx="26.5" cy="11.5" rx="2.5" ry="7.5"></ellipse>
                <path d="M0,67 L22,67" id="Line-Copy" stroke="#000000" stroke-width="2" stroke-linecap="square"></path>
            </g>
            <g id="Group-2" transform="translate(5.000000, 63.000000)" stroke="#000000">
                <path d="M39,7.5 C39,3.35786438 30.2695526,0 19.5,0 C8.73044738,0 0,3.35786438 0,7.5 L0,15.5 C0,19.6421356 8.73044738,23 19.5,23 C30.2695526,23 39,19.6421356 39,15.5 L39,7.5 Z" id="Combined-Shape" stroke-width="2" fill="#525252"></path>
                <path d="M35.5584807,8 C33.8395264,5.1333 27.3021688,3 19.5,3 C11.6978312,3 5.16047355,5.1333 3.44151928,8 C5.16047355,10.8667 11.6978312,13 19.5,13 C27.3021688,13 33.8395264,10.8667 35.5584807,8 Z" id="Combined-Shape" stroke-width="2" stroke-linejoin="round" fill="#AC5154"></path>
                <use id="Combined-Shape" mask="url(#mask-2)" stroke-width="4" stroke-linejoin="round" xlink:href="#path-1"></use>
                <path d="M4,14 C8,17 12,18 19,18" id="Path-9" stroke-width="2" stroke-linecap="round"></path>
            </g>
        </g>
    </g>
</svg>