<?xml version="1.0" encoding="UTF-8" standalone="no"?>
<svg width="70px" height="46px" viewBox="0 0 70 46" version="1.1" xmlns="http://www.w3.org/2000/svg" xmlns:xlink="http://www.w3.org/1999/xlink">
    <!-- Generator: sketchtool 40.3 (33839) - http://www.bohemiancoding.com/sketch -->
    <title>2EA4A13C-BDDC-43B2-83D7-6B4FAE6D944E</title>
    <desc>Created with sketchtool.</desc>
    <defs></defs>
    <g id="Page-1" stroke="none" stroke-width="1" fill="none" fill-rule="evenodd" stroke-linecap="round" stroke-linejoin="round">
        <g id="desktop_icons" transform="translate(-286.000000, -1895.000000)" stroke="#000000">
            <g id="Restore" transform="translate(286.000000, 1884.000000)">
                <g id="Page-1" stroke-width="1" fill-rule="evenodd" transform="translate(1.000000, 12.000000)">
                    <path d="M26.0000005,42 L14,42 C6.1473,42.209 0.0003,35.634 0.0003,28 C0.0003,20.468 6.1473,14.012 14,14 C14.1943,14.012 14.6513,13.999 15,14 C18.1773,5.833 26.0913,0 35,0 C44.3683,0 52.1083,5.534 55,13 C62.9999986,14 67.9999975,21 68,28 C68.0000025,35 61.9999986,42 54.9999986,42" id="Stroke-3" stroke-width="2"></path>
                    <polyline id="Stroke-5" stroke-width="2" transform="translate(43.500000, 21.000000) rotate(-270.000000) translate(-43.500000, -21.000000) " points="36.5 24.5 43.4999997 17.5 50.5 24.5"></polyline>
                </g>
                <path d="M36,55 C36,55 40.1633057,56 42,56 C48.627417,56 54,50.627417 54,44 C54,37.372583 48.627417,32 42,32 C35.372583,32 30,37.372583 30,44" id="Oval-11" stroke-width="2" transform="translate(42.000000, 44.000000) rotate(-180.000000) translate(-42.000000, -44.000000) "></path>
            </g>
        </g>
    </g>
</svg>