<?xml version="1.0" encoding="UTF-8" standalone="no"?>
<svg width="59px" height="51px" viewBox="0 0 59 51" version="1.1" xmlns="http://www.w3.org/2000/svg" xmlns:xlink="http://www.w3.org/1999/xlink">
    <!-- Generator: sketchtool 40.3 (33839) - http://www.bohemiancoding.com/sketch -->
    <title>CDDB796F-01F0-46E4-907C-438F48C61233</title>
    <desc>Created with sketchtool.</desc>
    <defs></defs>
    <g id="Page-1" stroke="none" stroke-width="1" fill="none" fill-rule="evenodd" stroke-linecap="round">
        <g id="desktop_icons" transform="translate(-392.000000, -1894.000000)" stroke="#000000" stroke-width="2">
            <g id="Transfer" transform="translate(386.000000, 1884.000000)">
                <path d="M33.0178515,32 L33.0178515,24.0057983 C33.0178515,22.3457418 34.36517,21 36.0178706,21 L60.0178323,21 C61.6746971,21 63.0178515,22.3424683 63.0178515,23.995507 L63.0178515,57.004493 C63.0178515,58.6588658 61.6697312,60 60.0160471,60 L36.0018043,60 C34.3439536,60 33,58.6576201 33,56.9966463 L33,45.9999886" id="Path-12"></path>
                <polyline id="Stroke-5" stroke-linejoin="round" transform="translate(48.500000, 39.000000) rotate(-270.000000) translate(-48.500000, -39.000000) " points="41.5 42.5 48.4999997 35.5 55.5 42.5"></polyline>
                <path d="M41.0178509,11 C41.0178509,11 42.3666669,11 44.0236494,11 L49.012053,11 C50.6721096,11 52.0178515,12.3408334 52.0178515,13.9982167 L52.0178515,49.0017833 C52.0178515,50.6576526 50.6697312,52 49.0160471,52 L25.0018043,52 C23.3439536,52 22,50.6513555 22,48.9996703 L22,42" id="Path-12-Copy" transform="translate(37.008926, 31.500000) rotate(-180.000000) translate(-37.008926, -31.500000) "></path>
                <path d="M22,24 L14.5219726,24 C10.3677019,24 7,27.3737651 7,31.5166482 L7,31.5166482 C7,35.6679784 10.3639114,39.0332964 14.5066554,39.0332964 L52.0000123,39.0332964" id="Path-13"></path>
            </g>
        </g>
    </g>
</svg>