<?xml version="1.0" encoding="UTF-8" standalone="no"?>
<svg width="56px" height="70px" viewBox="0 0 56 70" version="1.1" xmlns="http://www.w3.org/2000/svg" xmlns:xlink="http://www.w3.org/1999/xlink">
    <!-- Generator: sketchtool 39.1 (31720) - http://www.bohemiancoding.com/sketch -->
    <title>946EC5D1-C8DD-4CEC-8BD6-1416021A0FFB</title>
    <desc>Created with sketchtool.</desc>
    <defs></defs>
    <g id="Support" stroke="none" stroke-width="1" fill="none" fill-rule="evenodd">
        <g id="4.2-Select-Product--4.4" transform="translate(-704.000000, -511.000000)">
            <g id="Select-Product" transform="translate(211.000000, 218.000000)">
                <g id="Group-6" transform="translate(0.000000, 293.000000)">
                    <g id="Series" transform="translate(163.000000, 0.000000)">
                        <g id="icons">
                            <g id="butterfly_icon-copy" transform="translate(323.000000, 0.000000)">
                                <path d="M14,1 C14,1 15.7842933,1 17.990053,1 L34.009947,1 C36.2135924,1 38,2.79568082 38,5.0065556 L38,56.9934444 C38,59.206204 36.214822,61 34.0017777,61 L31.7703141,61 L12.0054304,61 C9.79329228,61 8,59.2046438 8,57 L8,53" id="Rectangle-11" stroke="#000000" stroke-width="2" transform="translate(23.000000, 31.000000) rotate(-180.000000) translate(-23.000000, -31.000000) "></path>
                                <rect id="Rectangle-11-Copy" stroke="#000000" stroke-width="2" x="32" y="9" width="30" height="60" rx="4"></rect>
                                <path d="M32,17 L62,17" id="Line" stroke="#000000" stroke-width="2" stroke-linecap="square"></path>
                                <path d="M32,61 L62,61" id="Line-Copy" stroke="#000000" stroke-width="2" stroke-linecap="square"></path>
                                <path d="M16,11 L16,13" id="Line" stroke="#000000" stroke-width="2" stroke-linecap="round"></path>
                                <circle id="Oval-3-Copy" fill="#000000" fill-rule="evenodd" cx="23" cy="5" r="1"></circle>
                                <circle id="Oval-4" stroke="#000000" stroke-width="2" cx="23" cy="12" r="3"></circle>
                                <rect id="Rectangle-12" stroke="#000000" stroke-width="2" x="41" y="9" width="13" height="3"></rect>
                                <rect id="Rectangle-12-Copy" stroke="#000000" stroke-width="2" transform="translate(47.500000, 67.500000) rotate(-180.000000) translate(-47.500000, -67.500000) " x="41" y="66" width="13" height="3"></rect>
                            </g>
                        </g>
                    </g>
                </g>
            </g>
        </g>
    </g>
</svg>