<?xml version="1.0" encoding="UTF-8" standalone="no"?>
<svg width="70px" height="70px" viewBox="0 0 70 70" version="1.1" xmlns="http://www.w3.org/2000/svg" xmlns:xlink="http://www.w3.org/1999/xlink">
    <!-- Generator: sketchtool 39.1 (31720) - http://www.bohemiancoding.com/sketch -->
    <title>68654FE8-249E-48B5-9D3D-F01BCDABBD5B</title>
    <desc>Created with sketchtool.</desc>
    <defs></defs>
    <g id="Symbols" stroke="none" stroke-width="1" fill="none" fill-rule="evenodd">
        <g id="ua_fitness_icon-copy" stroke="#000000" stroke-width="2">
            <path d="M66.3624202,47.2464439 C67.2653846,45.2963278 68.2092412,42.7025427 68.5929541,40.2453281 C69.931645,31.6726415 68.0094825,22.5893999 62.5065778,15.0153014 C51.4693336,-0.176162021 30.2067649,-3.54382206 15.0153014,7.49342219 C-0.176162021,18.5306664 -3.54382206,39.7932351 7.49342219,54.9846986 C18.3216703,69.8885034 38.991665,73.4120457 54.115303,63.1180891" id="Oval" stroke-linecap="round"></path>
            <path d="M10,12 L60,12" id="Line" stroke-linecap="round"></path>
            <path d="M1,34 L31,34" id="Line-Copy" stroke-linecap="round"></path>
            <path d="M35,39 L35,69" id="Line-Copy-3" stroke-linecap="round"></path>
            <path d="M35,12 L35,30" id="Line-Copy-4" stroke-linecap="round"></path>
            <path d="M39,34 L69,34" id="Line-Copy-2" stroke-linecap="round"></path>
            <circle id="Oval-2" cx="35" cy="34" r="4"></circle>
            <path d="M69,51 C69,47.6862915 62.2842712,45 54,45 C45.7157288,45 39,47.6862915 39,51 L39,57 C39,60.3137085 45.7157288,63 54,63 C62.2842712,63 69,60.3137085 69,57 L69,51 Z" id="Combined-Shape"></path>
            <ellipse id="Oval-5-Copy-2" cx="54" cy="52" rx="12" ry="4"></ellipse>
            <path d="M61.9374732,55 C59.8220736,55.6223634 57.0433394,56 54,56 C50.9566606,56 48.1779264,55.6223634 46.0625268,55 C48.1779264,54.3776366 50.9566606,54 54,54 C57.0433394,54 59.8220736,54.3776366 61.9374732,55 L61.9374732,55 Z" id="Combined-Shape" stroke-linejoin="round"></path>
            <path d="M43,57 C45,58 48,59 53,59" id="Path-7" stroke-linecap="round"></path>
        </g>
    </g>
</svg>