<?xml version="1.0" encoding="UTF-8" standalone="no"?>
<svg width="52px" height="55px" viewBox="0 0 52 55" version="1.1" xmlns="http://www.w3.org/2000/svg" xmlns:xlink="http://www.w3.org/1999/xlink">
    <!-- Generator: sketchtool 42 (36781) - http://www.bohemiancoding.com/sketch -->
    <title>3B7F159E-C0A0-4548-934C-F16DE5BD416F</title>
    <desc>Created with sketchtool.</desc>
    <defs></defs>
    <g id="Page-1" stroke="none" stroke-width="1" fill="none" fill-rule="evenodd" stroke-linecap="round" stroke-linejoin="round">
        <g id="desktop_icons" transform="translate(-598.000000, -1752.000000)" stroke="#000000" stroke-width="2">
            <g id="Call_us" transform="translate(586.000000, 1744.000000)">
                <path d="M44,21.499598 C44,14.5956708 38.4035251,9 31.500402,9 C24.5964749,9 19,14.5956708 19,21.499598 C19,28.4035251 24.5964749,33.9991959 31.500402,33.9991959 C38.4035251,33.9991959 44,28.4035251 44,21.499598 L44,21.499598 Z" id="Stroke-1"></path>
                <path d="M48,49 C44,41 36.6283874,39 31,39 C21.5070166,39 13.7247715,46.0939173 13.0033564,57.2850932 C12.943642,58.2125921 13.6884587,59 14.6196813,59 L35,59" id="Stroke-3"></path>
                <path d="M55.3142806,30.5940726 L50.7071169,36.0246048 C50.1057803,36.7327523 50.1932475,37.7941324 50.9013949,38.395469 L53.9021908,40.9412676 C54.1368382,41.1405917 54.2613107,41.4559781 54.1822539,41.7528617 C54.0300274,42.3180341 53.65661,42.9647863 53.3849572,43.3886655 C52.6465327,44.5282615 51.3942386,45.9941772 49.734045,47.6804428 C46.2261079,51.2220211 44.4843343,52.0756668 43.6441451,52.1690212 C43.3758564,52.1992983 43.113455,52.0790309 42.9385207,51.8729785 L40.4070197,48.8890033 C39.8056831,48.1808558 38.7443029,48.0942297 38.0361555,48.6947253 L32.5938488,53.3128223 C31.8814962,53.917523 31.7982342,54.9864724 32.4079812,55.6937789 L36.2388739,60.1377826 C37.5693837,61.149542 40.1320028,61.067121 43.2202658,59.8846325 C46.8316496,58.5019788 50.7575788,55.7913384 54.2781313,52.2379856 C57.7885915,48.6947253 60.4622266,44.7435652 61.8103981,41.1187249 C62.4251912,39.4677826 62.7288031,37.9581333 62.7229159,36.7117265 C62.7178697,35.7134236 62.5067711,34.890055 62.1022356,34.2819902 L57.7070116,30.4191383 C57.0005462,29.797617 55.9223454,29.8766738 55.3142806,30.5940726 L55.3142806,30.5940726 Z" id="Stroke-12" transform="translate(47.361500, 45.419431) rotate(-4.000000) translate(-47.361500, -45.419431) "></path>
            </g>
        </g>
    </g>
</svg>