<svg xmlns="http://www.w3.org/2000/svg" width="31" height="31" viewBox="0 0 31 31">
    <path fill="none" fill-rule="evenodd" stroke="#000" stroke-linecap="round" stroke-linejoin="round" stroke-width="2" d="M22.924 1.559l-4.332 5.106a1.582 1.582 0 0 0 .182 2.23l2.822 2.394c.22.187.338.484.264.763-.144.532-.495 1.14-.75 1.538-.695 1.072-1.872 2.45-3.433 4.036-3.3 3.33-4.937 4.133-5.727 4.221a.767.767 0 0 1-.664-.278l-2.38-2.806a1.582 1.582 0 0 0-2.23-.183l-5.118 4.343a1.582 1.582 0 0 0-.174 2.239l3.602 4.179c1.251.951 3.661.874 6.565-.238 3.396-1.3 7.088-3.85 10.399-7.191 3.3-3.332 5.815-7.048 7.083-10.456.578-1.553.864-2.972.858-4.144-.005-.94-.203-1.714-.584-2.285l-4.133-3.633a1.58 1.58 0 0 0-2.25.165z"/>
</svg>
