<svg xmlns="http://www.w3.org/2000/svg" width="47" height="34" viewBox="0 0 47 34">
    <g fill="none" fill-rule="evenodd" stroke-linejoin="round" stroke-width="2">
        <g stroke="#000" stroke-linecap="round">
            <path d="M31 28h10M1 28h21"/>
        </g>
        <path stroke="#000" d="M37 9V8H5v20h8.616V15H28v7"/>
        <path stroke="#040404" d="M5 9V4.002A2.997 2.997 0 0 1 8 1h26.002A3.002 3.002 0 0 1 37 4v4"/>
        <path stroke="#000" d="M37 24v3"/>
        <path stroke="#000" stroke-linecap="round" d="M21 15v12M45.033 13.65a.535.535 0 0 0-.875-.181l-2.855 2.855c-.74.741-1.911.955-2.803.402-1.229-.762-1.406-2.456-.438-3.424l2.964-2.965a.536.536 0 0 0-.18-.876c-2.572-.997-5.469-.354-7.528 1.706-1.925 1.926-2.588 4.602-1.742 7.153a.534.534 0 0 1-.123.549l-9.642 9.644a1.064 1.064 0 0 0 0 1.504l2.671 2.671a1.063 1.063 0 0 0 1.504 0l9.635-9.636a.533.533 0 0 1 .548-.123c2.55.85 5.247.2 7.178-1.731 2.059-2.06 2.687-4.974 1.686-7.549z"/>
    </g>
</svg>
