<svg xmlns="http://www.w3.org/2000/svg" width="41" height="32" viewBox="0 0 41 32">
    <g fill="none" fill-rule="evenodd" stroke="#000" stroke-width="2">
        <path d="M15 3h8"/>
        <path stroke-linecap="round" d="M9.957 3H2.875C1.938 3 1 3.865 1 4.871V24.99C1 25.994 1.938 27 2.875 27H15M37 20v5c0 1-1.046 2-1.872 2H30M29 3h6.222C36.112 3 37 4 37 5v2"/>
        <path d="M14.354 6h-3.708A.647.647 0 0 1 10 5.354V1.646c0-.356.29-.646.646-.646h3.708c.356 0 .646.29.646.646v3.708c0 .356-.29.646-.646.646zM27.354 6h-3.708A.647.647 0 0 1 23 5.354V1.646c0-.356.29-.646.646-.646h3.708c.356 0 .646.29.646.646v3.708c0 .356-.29.646-.646.646z"/>
        <path stroke-linecap="round" stroke-linejoin="round" d="M30.048 11.33a1.311 1.311 0 0 0 .158 1.88l2.438 2.018c.19.158.292.408.227.643-.123.448-.427.96-.647 1.297-.6.903-1.618 2.065-2.967 3.402-2.85 2.807-4.265 3.484-4.948 3.558a.67.67 0 0 1-.573-.235l-2.057-2.365a1.391 1.391 0 0 0-1.926-.154l-4.422 3.66a1.311 1.311 0 0 0-.151 1.888l3.112 3.522c1.082.802 3.164.737 5.673-.2 2.934-1.096 6.124-3.245 8.984-6.062 2.853-2.808 5.025-5.94 6.12-8.814.5-1.308.746-2.505.742-3.493-.004-.791-.176-1.444-.505-1.926l-3.57-3.062a1.39 1.39 0 0 0-1.945.139l-3.743 4.304z"/>
    </g>
</svg>
