<?xml version="1.0" encoding="utf-8"?>
<!-- Generator: Adobe Illustrator 19.1.0, SVG Export Plug-In . SVG Version: 6.00 Build 0)  -->
<svg version="1.1" id="Layer_1" xmlns="http://www.w3.org/2000/svg" xmlns:xlink="http://www.w3.org/1999/xlink" x="0px" y="0px"
	 viewBox="0 0 200 200" style="enable-background:new 0 0 200 200;" xml:space="preserve">
<style type="text/css">
	.st0{fill:#B3B3B3;}
	.st1{fill:#666666;}
</style>
<g>
	<path class="st0" d="M99.5,2.5c53.5,0,97,43.5,97,97s-43.5,97-97,97s-97-43.5-97-97S46,2.5,99.5,2.5 M99.5-0.5
		c-55.2,0-100,44.8-100,100s44.8,100,100,100s100-44.8,100-100S154.7-0.5,99.5-0.5L99.5-0.5z"/>
</g>
<g>
	<path class="st1" d="M100.3,79.6c-10.8,0-19.6,8.8-19.6,19.6c0,1.6,1.3,3,3,3c1.6,0,3-1.3,3-3c0-7.6,6.2-13.7,13.7-13.7
		c1.6,0,3-1.3,3-3C103.3,81,102,79.6,100.3,79.6z"/>
	<path class="st1" d="M39.6,71c-1.7,0-4.6,0.6-4.6,2.4v67.7c0,1.7,2.9,3.9,4.6,3.9h121.5c1.7,0,1.9-2.2,1.9-3.9V73.4
		c0-1.7-0.2-2.4-1.9-2.4h-22.9l-21.6-17.7c-0.6-0.5-1.3-0.3-2-0.3H86c-0.7,0-1.5-0.2-2,0.3L62.4,71H39.6z M157,139H42V95h25.1
		l-0.2,0.1c-0.3,1.9-0.5,3.4-0.5,5.3c0,18.7,15.2,33.7,33.9,33.7c18.7,0,33.9-15.3,33.9-34c0-1.9-0.2-3.1-0.5-4.9l-0.2-0.2H157V139z
		 M72.7,100c0-15.3,12.4-27.7,27.7-27.7c15.3,0,27.7,12.4,27.7,27.7c0,15.3-12.4,27.7-27.7,27.7C85.1,127.7,72.7,115.3,72.7,100z
		 M65.6,76.2L87.2,58h26.3l21.6,18.2c0.6,0.5,1.3,0.8,2,0.8H157v11h-25.3l-0.2-0.9c-5.4-12.5-17.6-20.8-31.2-20.8
		c-13.6,0-25.8,7.9-31.2,20.4l-0.2,0.5l-0.6,0.4c-0.1,0-0.1,0.4-0.2,0.4H42V77h21.6C64.3,77,65,76.7,65.6,76.2z"/>
</g>
</svg>
