<?xml version="1.0" encoding="utf-8"?>
<!-- Generator: Adobe Illustrator 19.1.0, SVG Export Plug-In . SVG Version: 6.00 Build 0)  -->
<svg version="1.1" id="Layer_1" xmlns="http://www.w3.org/2000/svg" xmlns:xlink="http://www.w3.org/1999/xlink" x="0px" y="0px"
	 viewBox="0 0 200 200" style="enable-background:new 0 0 200 200;" xml:space="preserve">
<style type="text/css">
	.st0{fill:#B3B3B3;}
	.st1{fill:#666666;}
</style>
<g>
	<path class="st0" d="M99.5,2.5c53.5,0,97,43.5,97,97s-43.5,97-97,97s-97-43.5-97-97S46,2.5,99.5,2.5 M99.5-0.5
		c-55.2,0-100,44.8-100,100s44.8,100,100,100s100-44.8,100-100S154.7-0.5,99.5-0.5L99.5-0.5z"/>
</g>
<g>
	<path class="st1" d="M141.2,84.5c1.3,0,2.4-1.3,2.4-2.7c0-1.4-1.1-2.7-2.4-2.7H127V68h14.2c1.3,0,2.4-1.1,2.4-2.5
		c0-1.4-1.1-2.5-2.4-2.5h-14.7l-0.1-0.4c-1-3.9-4.3-6.6-8.1-6.6H116V40.7c0-1.4-1.2-2.5-2.5-2.5c-1.3,0-2.5,1.1-2.5,2.5V56h-10V40.7
		c0-1.4-1.2-2.5-2.5-2.5c-1.3,0-2.5,1.1-2.5,2.5V56H86V40.7c0-1.4-1.2-2.5-2.5-2.5c-1.3,0-2.5,1.1-2.5,2.5V56H71V40.7
		c0-1.4-1.2-2.5-2.5-2.5c-1.3,0-2.5,1.1-2.5,2.5V56h-2.3c-3.8,0-7.1,2.7-8.1,6.6L55.4,63H40.6c-1.3,0-2.4,1.1-2.4,2.5
		c0,1.4,1.1,2.5,2.4,2.5H55v11H40.6c-1.3,0-2.4,1.6-2.4,3c0,1.4,1.1,3,2.4,3H55v10H40.6c-1.3,0-2.4,1.1-2.4,2.5
		c0,1.4,1.1,2.5,2.4,2.5H55v11H40.6c-1.3,0-2.4,1.1-2.4,2.5c0,1.4,1.1,2.5,2.4,2.5h14.8l0.1,0.4c1,3.9,4.3,6.6,8.1,6.6H66v16.1
		c0,1.4,1.2,2.5,2.5,2.5c1.3,0,2.5-1.1,2.5-2.5V123h10v16.1c0,1.4,1.2,2.5,2.5,2.5c1.3,0,2.5-1.1,2.5-2.5V123h10v16.1
		c0,1.4,1.1,2.5,2.4,2.5c1.3,0,2.4-1.1,2.4-2.5l0-20.9l-37.1,0c-2,0-3.6-1.7-3.6-3.8v-49c0-2.1,1.6-4.3,3.7-4.3h54.6
		c2,0,3.7,2,3.7,4.1l0,19.2L141.2,84.5z"/>
	<g>
		<path class="st1" d="M71.5,96.3l2-1.9c0.9,1,1.8,1.6,3.2,1.6c1.1,0,1.9-0.6,1.9-1.6v0c0-1.1-1-1.7-2.6-1.7h-1.2l-0.5-1.8l3.1-3.2
			h-5.2v-2.5h8.9v2.2l-3.3,3.2c1.8,0.3,3.5,1.2,3.5,3.7v0c0,2.5-1.8,4.3-4.8,4.3C74.3,98.6,72.7,97.7,71.5,96.3z"/>
		<path class="st1" d="M82.8,91.8L82.8,91.8c0-3.8,2.9-6.9,6.9-6.9c2.4,0,3.8,0.6,5.2,1.8L93.1,89c-1-0.8-1.9-1.3-3.5-1.3
			c-2.1,0-3.8,1.9-3.8,4.1v0c0,2.4,1.7,4.2,4,4.2c1.1,0,2-0.3,2.7-0.8v-1.9h-2.9v-2.5h5.7v5.7c-1.4,1.2-3.2,2.1-5.6,2.1
			C85.6,98.6,82.8,95.7,82.8,91.8z"/>
		<path class="st1" d="M97.4,85.2h6.1c1.5,0,2.7,0.4,3.5,1.2c0.6,0.6,0.9,1.3,0.9,2.2v0c0,1.5-0.8,2.3-1.7,2.8
			c1.5,0.6,2.5,1.5,2.5,3.2v0c0,2.4-2,3.6-4.9,3.6h-6.3V85.2z M102.9,90.5c1.3,0,2.1-0.4,2.1-1.4v0c0-0.9-0.7-1.4-1.9-1.4h-2.9v2.8
			H102.9z M103.7,95.9c1.3,0,2.1-0.5,2.1-1.4v0c0-0.9-0.7-1.4-2.1-1.4h-3.4v2.9H103.7z"/>
	</g>
	<path class="st1" d="M157.8,110.2h2.9V94.6c0-2.1-1.7-3.9-3.9-3.9h-31.5c-1.5,0-3,0.6-4.1,1.7L108,105.7c-1.1,1.1-1.7,2.6-1.7,4.1
		v5.2h2.3c1.1,0,1.9,0.9,1.9,1.9v2.5c0,1.1-0.9,1.9-1.9,1.9h-2.3v35.8c0,2.1,1.7,3.9,3.9,3.9h46.6c2.1,0,3.9-1.7,3.9-3.9v-31.1h-2.9
		c-1.1,0-1.9-0.9-1.9-1.9v-12C155.9,111.1,156.7,110.2,157.8,110.2 M141.5,95.6h5.5v8.1h-5.5V95.6z M123.6,95.6h5.3v8.1h-5.3V95.6z
		 M114.9,103.2h5.1v8.1h-5.1V103.2z M115.7,137l4.4-3.6c1.6-1.4,2.3-2.1,2.3-3.2c0-1.1-0.7-1.7-1.8-1.7c-1,0-1.7,0.6-2.7,1.8l-2-1.6
		c1.3-1.8,2.6-2.7,4.9-2.7c2.7,0,4.5,1.6,4.5,4.1v0c0,2.2-1.1,3.3-3.5,5.1l-2.1,1.7h5.7v2.5h-9.8V137z M130.4,128.8h-4v-2.7h10.9
		v2.7h-4v10.5h-2.9V128.8z M138.8,126.1h6.1c1.5,0,2.7,0.4,3.4,1.2c0.6,0.6,0.9,1.3,0.9,2.2v0c0,1.5-0.8,2.3-1.7,2.8
		c1.5,0.6,2.5,1.5,2.5,3.2v0c0,2.4-2,3.6-4.9,3.6h-6.3V126.1z M144.3,131.5c1.3,0,2.1-0.4,2.1-1.4v0c0-0.9-0.7-1.4-1.9-1.4h-2.9v2.8
		H144.3z M145.1,136.8c1.3,0,2.1-0.5,2.1-1.4v0c0-0.9-0.7-1.4-2.1-1.4h-3.4v2.9H145.1z M138,103.8h-5.6v-8.1h5.6V103.8z M150.5,95.6
		h5.5v8.1h-5.5V95.6z"/>
</g>
</svg>
