<?xml version="1.0" encoding="utf-8"?>
<!-- Generator: Adobe Illustrator 19.1.0, SVG Export Plug-In . SVG Version: 6.00 Build 0)  -->
<svg version="1.1" id="Layer_1" xmlns="http://www.w3.org/2000/svg" xmlns:xlink="http://www.w3.org/1999/xlink" x="0px" y="0px"
	 viewBox="0 0 200 200" style="enable-background:new 0 0 200 200;" xml:space="preserve">
<style type="text/css">
	.st0{fill:#B3B3B3;}
	.st1{fill:#666666;}
</style>
<g>
	<path class="st0" d="M99.5,2.5c53.5,0,97,43.5,97,97s-43.5,97-97,97s-97-43.5-97-97S46,2.5,99.5,2.5 M99.5-0.5
		c-55.2,0-100,44.8-100,100s44.8,100,100,100s100-44.8,100-100S154.7-0.5,99.5-0.5L99.5-0.5z"/>
</g>
<g>
	<path class="st1" d="M127.7,46.3c0-5.2-4.2-9.3-9.3-9.3h-37c-5.2,0-9.3,4.2-9.3,9.3v76.8c0,5.2,4.2,9.3,9.3,9.3h37
		c5.2,0,9.3-4.2,9.3-9.3V46.3z M81.5,40.4h37.2c3.2,0,5.7,2.5,5.7,5.7v1.7H75.5v-1.7C75.5,42.9,78.2,40.4,81.5,40.4z M124.3,51.3v67
		H75.5v-67H124.3z M118.6,129.1H81.5c-3.2,0-5.9-2.6-5.9-5.9v-1.5h48.7v1.5C124.3,126.4,121.9,129.1,118.6,129.1z"/>
	<path class="st1" d="M118.4,133.2h-37c-5.5,0-10-4.5-10-10V46.3c0-5.5,4.5-10,10-10h37c5.5,0,10,4.5,10,10v76.8
		C128.4,128.7,123.9,133.2,118.4,133.2z M81.4,37.7c-4.8,0-8.6,3.9-8.6,8.6v76.8c0,4.8,3.9,8.6,8.6,8.6h37c4.8,0,8.6-3.9,8.6-8.6
		V46.3c0-4.8-3.9-8.6-8.6-8.6H81.4z M118.6,129.8H81.5c-3.7,0-6.6-3-6.6-6.6V121H125v2.2C125,126.9,122.2,129.8,118.6,129.8z
		 M76.2,122.4v0.8c0,2.9,2.3,5.2,5.2,5.2h37.2c2.8,0,4.9-2.3,4.9-5.2v-0.8H76.2z M125,118.9H74.8V50.6H125V118.9z M76.2,117.5h47.3
		V52H76.2V117.5z M125,48.5H74.8v-2.4c0-3.6,2.9-6.4,6.6-6.4h37.2c3.6,0,6.4,2.8,6.4,6.4V48.5z M76.2,47.1h47.3v-1
		c0-2.9-2.1-5-4.9-5H81.5c-2.9,0-5.2,2.2-5.2,5V47.1z"/>
</g>
<g>
	<g>
		<path class="st1" d="M134.2,121.8c-0.8,4.6-3.9,8.8-8.4,12.1l17.1,22.7c12.8-6.2,22.3-15,26.6-25.3L134.2,121.8z"/>
	</g>
	<g>
		<path class="st1" d="M65.3,121.2l-35.5,9.6c4.3,10.8,14.4,20.1,28,26.4l17-22.5C69.6,131.1,66.1,126.4,65.3,121.2z"/>
	</g>
	<g>
		<g>
			<path class="st1" d="M123.3,135.6c-6.2,3.7-14.4,5.9-23.5,5.9c-8.5,0-16.3-2-22.3-5.3l-16.7,22.2c11.3,4.7,24.7,7.4,39.1,7.4
				c14.9,0,28.8-2.9,40.3-7.9L123.3,135.6z M87.9,160.7h-3.2V149l-2.6,0.6l-0.7-2.7l4.3-1.3h2.2V160.7z M101.2,155.8
				c0,3.2-2.2,5.2-5.7,5.2c-2.4,0-4.1-0.9-5.6-2.2l2-2.4c1.1,1,2.2,1.6,3.6,1.6c1.5,0,2.5-0.7,2.5-2.1v0c0-1.3-1.1-2-2.7-2
				c-0.9,0-1.8,0.3-2.5,0.6l-1.9-1.3l0.4-7.4h9.2v2.9h-6.4l-0.2,2.6c0.6-0.1,1.1-0.3,2-0.3C98.9,151,101.2,152.4,101.2,155.8
				L101.2,155.8z M116.1,153.2c0,4.3-2.7,7.7-6.7,7.7c-4,0-6.6-3.4-6.6-7.7v0c0-4.3,2.7-7.7,6.7-7.7
				C113.4,145.5,116.1,148.8,116.1,153.2L116.1,153.2z M120.1,150.4c-1.8,0-3.1-1.4-3.1-3c0-1.8,1.4-3.2,3.1-3.2
				c2,0,3.1,1.5,3.1,3.1C123.2,149.1,121.7,150.4,120.1,150.4z"/>
		</g>
		<g>
			<path class="st1" d="M120.1,145.2c-1.3,0-1.9,1.2-1.9,2.2c0,1.1,0.8,2,1.9,2c1.1,0,1.9-0.9,1.9-2.1
				C122,146.3,121.5,145.2,120.1,145.2z"/>
		</g>
		<g>
			<path class="st1" d="M109.5,148.5c-2,0-3.5,2-3.5,4.7v0c0,2.7,1.5,4.8,3.5,4.8c2,0,3.5-2,3.5-4.7v0
				C113,150.5,111.4,148.5,109.5,148.5z"/>
		</g>
	</g>
</g>
<path class="st1" d="M118,107.3c0-3.3-2.2-7-5.7-9.2c0.1-0.3,0.2-0.5,0.3-0.8c0.1-0.3,0.1-0.5,0.2-0.9c0.4-2.5,0.6-6.3,0.6-12.1
	c0-9.1-5.9-16.4-13.1-16.4c-2.6,0-5.1,1-7.2,2.7c-0.4,0.3-0.7,0.5-0.9,0.8c-3.1,3-5.1,7.7-5.1,12.9c0,6.2,0.2,10.2,0.7,12.6
	c0.1,0.3,0.1,0.6,0.2,0.8c0.1,0.3,0.1,0.6,0.2,0.8c-3.4,2.3-6,5.7-6,8.8V119h36V107.3z M105.9,101c-3.1,1.7-5.2,3-5.5,3
	c-1-0.1-5.8-2.9-5.8-2.9c-1.2-0.6-1.9-1-3.3-2.3c0.2-0.2,0.8-1.1,1-1.4c0.2-0.2,0.3-0.4,0.5-0.7c0.8-1,1.6-2.1,2.5-3.1
	c1.4,1.2,3.1,1.9,4.8,1.9c1.7,0,3.4-0.7,4.8-1.9c1.1,1.3,2.2,2.7,3.1,3.9c0.2,0.2,0.4,0.5,0.5,0.7c0.2,0.2,0.4,0.4,0.6,0.6
	C108.5,99.7,106.8,100.5,105.9,101z M111.2,81.8c-0.3,1.2-1.1,2-1.8,2.1l-0.5,0.1l-0.1,0.5c-0.8,3-2.6,6.2-4.8,8
	c-1.1,0.9-2.4,1.5-3.7,1.5c-1.3,0-2.6-0.6-3.7-1.5c-2.2-1.8-4-4.9-4.8-8l-0.2-0.5L91,83.8c-0.6-0.1-1.5-0.8-1.8-2.1
	c-0.2-0.8-0.1-1.7,0.2-2.3c0.1-0.2,0.4-0.5,0.7-0.6c0.1,0,0.1,0,0.2,0c0.1,0,0.1,0,0.1,0l0.8,0.1l0.1-0.8c0.1-0.6,0.2-1.3,0.4-1.8
	c1,3.1,3.6,2.8,7.4,3.2c1.2,0.2,2.6,0.2,3.5,0.2c0.1-2.4-2.7-5.1-2.7-5.1s0.1,0,0.4,0c0.4,0.1,1.3,0.4,1.5,0.5
	c3.1,1.7,3.7,4.2,3.7,4.3c1.6-0.4,2.8-1.2,3.2-2.7c0.1,0.5,0.2,0.9,0.3,1.4l0.1,0.8l0.8-0.1c0.1,0,0.2,0,0.3,0
	c0.3,0.1,0.6,0.4,0.7,0.6C111.3,80.1,111.4,81,111.2,81.8z"/>
<circle class="st1" cx="88.4" cy="44.3" r="2.7"/>
</svg>
