<?xml version="1.0" encoding="utf-8"?>
<!-- Generator: Adobe Illustrator 19.1.0, SVG Export Plug-In . SVG Version: 6.00 Build 0)  -->
<svg version="1.1" id="Layer_1" xmlns="http://www.w3.org/2000/svg" xmlns:xlink="http://www.w3.org/1999/xlink" x="0px" y="0px"
	 viewBox="0 0 200 200" style="enable-background:new 0 0 200 200;" xml:space="preserve">
<style type="text/css">
	.st0{fill:#B3B3B3;}
	.st1{fill:#666666;}
</style>
<g>
	<path class="st0" d="M99.5,2.5c53.5,0,97,43.5,97,97s-43.5,97-97,97s-97-43.5-97-97S46,2.5,99.5,2.5 M99.5-0.5
		c-55.2,0-100,44.8-100,100s44.8,100,100,100s100-44.8,100-100S154.7-0.5,99.5-0.5L99.5-0.5z"/>
</g>
<rect x="152.4" y="92.3" class="st1" width="13.1" height="13.1"/>
<rect x="138" y="108" class="st1" width="13" height="13"/>
<rect x="152.1" y="121.9" class="st1" width="13.1" height="13.1"/>
<rect x="50.5" y="90.6" class="st1" width="13.1" height="13.1"/>
<rect x="35.5" y="76.3" class="st1" width="13" height="13"/>
<rect x="35.6" y="104.9" class="st1" width="13" height="13"/>
<path class="st1" d="M136.7,49.5c0-6.6-5.4-12-12-12H77.2c-6.6,0-12,5.4-12,12v98.7c0,6.6,5.4,12,12,12h47.5c6.6,0,12-5.4,12-12
	V49.5z M77.3,41.9H125c4.2,0,7.3,3.2,7.3,7.3v2.2H69.7v-2.2C69.7,45.1,73.1,41.9,77.3,41.9z M132.3,55.8v86H69.7v-86H132.3z
	 M125,155.8H77.3c-4.2,0-7.6-3.4-7.6-7.6v-1.9h62.6v1.9C132.3,152.4,129.2,155.8,125,155.8z"/>
<circle class="st1" cx="86.5" cy="47" r="3.3"/>
<rect x="102" y="58.3" class="st1" width="13.4" height="13.4"/>
<rect x="86.7" y="73.7" class="st1" width="13.3" height="13.3"/>
<rect x="118.1" y="73.9" class="st1" width="13.5" height="13.5"/>
<rect x="71.3" y="111.1" class="st1" width="13.5" height="13.5"/>
<rect x="117.3" y="111.2" class="st1" width="13.5" height="13.5"/>
<rect x="86.7" y="126.6" class="st1" width="13.3" height="13.3"/>
<g>
	<path class="st1" d="M106.6,99.3c0-0.8,0.3-1.6,0.8-2.1c0.5-0.5,1.2-0.8,2-0.8c0.4,0,0.9,0,2.1,0c0.8,0,3.7,0,3.7,0v1.5l-3.5,0
		c-1.2,0-1.9,0-2.1,0c-0.7,0-1.3,0.7-1.4,1.5c0,0.4,0,0.8,0,1.3c0.1,0.8,0.6,1.3,1.4,1.4c0.4,0,1.8,0,3.3,0c0.8,0,2.4,0,2.4,0v1.5
		c0,0-5.1,0-5.7,0c-0.7,0-1.5-0.3-2-0.8c-0.5-0.5-0.7-1.1-0.8-2C106.5,100.3,106.5,99.8,106.6,99.3"/>
	<polygon class="st1" points="96.8,96.5 105.3,96.5 105.3,98 101.8,98 101.8,103.5 100.3,103.5 100.3,98 96.8,98 	"/>
	<path class="st1" d="M86.8,94.1h1.5v2.7c0,0,0,0,0,0c0.2-0.2,0.7-0.4,1.3-0.4c0.5,0,2.4,0,2.9,0c0.6,0,1.4,0.3,2,0.8
		c0.5,0.5,0.8,1.2,0.8,2c0,0.3,0,4.3,0,4.3h-1.5c0,0,0-3.9,0-4.2c0-0.8-0.6-1.4-1.3-1.4c-0.5,0-2.3-0.1-2.8,0
		c-0.7,0.1-1.3,0.6-1.3,1.4c0,0.4,0,4.3,0,4.3h-1.5V94.1z"/>
</g>
</svg>
