<?xml version="1.0" encoding="utf-8"?>
<!-- Generator: Adobe Illustrator 19.1.0, SVG Export Plug-In . SVG Version: 6.00 Build 0)  -->
<svg version="1.1" id="Layer_1" xmlns="http://www.w3.org/2000/svg" xmlns:xlink="http://www.w3.org/1999/xlink" x="0px" y="0px"
	 viewBox="0 0 200 200" style="enable-background:new 0 0 200 200;" xml:space="preserve">
<style type="text/css">
	.st0{fill:#B3B3B3;}
	.st1{fill:#666666;}
</style>
<g>
	<path class="st0" d="M99.5,2.5c53.5,0,97,43.5,97,97s-43.5,97-97,97s-97-43.5-97-97S46,2.5,99.5,2.5 M99.5-0.5
		c-55.2,0-100,44.8-100,100s44.8,100,100,100s100-44.8,100-100S154.7-0.5,99.5-0.5L99.5-0.5z"/>
</g>
<g>
	<path class="st1" d="M142,83.2c1.3,0,2.4-1.2,2.4-2.6c0-1.4-1.1-2.6-2.4-2.6h-15V67h15c1.3,0,2.4-1.1,2.4-2.5
		c0-1.4-1.1-2.5-2.4-2.5h-15l-0.1-0.4c-1-4-4.4-6.6-8.2-6.6H116V38.5c0-1.4-1.2-2.6-2.5-2.6s-2.5,1.2-2.5,2.6V55h-10V38.5
		c0-1.4-1.2-2.6-2.5-2.6S96,37.1,96,38.5V55H86V38.5c0-1.4-1.2-2.6-2.5-2.6S81,37.1,81,38.5V55H70V38.5c0-1.4-1.2-2.6-2.5-2.6
		S65,37.1,65,38.5V55h-2.1c-3.9,0-7.2,2.7-8.2,6.6L54.6,62H39.5c-1.3,0-2.4,1.1-2.4,2.5c0,1.4,1.1,2.5,2.4,2.5H54v11H39.5
		c-1.3,0-2.4,1.1-2.4,2.5c0,1.4,1.1,2.5,2.4,2.5H54v11H39.5c-1.3,0-2.4,1.1-2.4,2.5c0,1.4,1.1,2.5,2.4,2.5H54v11H39.5
		c-1.3,0-2.4,1.6-2.4,3c0,1.4,1.1,3,2.4,3h15.1l0.1,0.4c1,4,4.4,6.6,8.2,6.6H65v15.9c0,1.4,1.2,2.6,2.5,2.6s2.5-1.2,2.5-2.6V123h11
		v15.9c0,1.4,1.2,2.6,2.5,2.6s2.5-1.2,2.5-2.6V123h10v15.9c0,1.4,1.1,2.6,2.4,2.6c1.3,0,2.4-1.2,2.4-2.6l0-21.3l-38,0
		c-2.1,0-3.8-1.8-3.8-3.9v-50c0-2.2,1.9-3.7,3.9-3.7h55.7c2.1,0,3.7,1.6,3.7,3.8l0,19.4L142,83.2z"/>
	<path class="st1" d="M158.9,109.4h3v-16c0-2.2-1.8-3.9-3.9-3.9h-32.1c-1.6,0-3.1,0.6-4.2,1.8l-13.4,13.5c-1.1,1.1-1.7,2.6-1.7,4.2
		v5.3h2.3c1.1,0,2,0.9,2,2v2.6c0,1.1-0.9,2-2,2h-2.3v36.5c0,2.2,1.8,3.9,3.9,3.9H158c2.2,0,3.9-1.8,3.9-3.9v-31.7h-3
		c-1.1,0-2-0.9-2-2v-12.2C157,110.3,157.9,109.4,158.9,109.4 M142.3,94.6h5.6v8.3h-5.6V94.6z M124.1,94.6h5.4v8.3h-5.4V94.6z
		 M115.2,102.3h5.2v8.3h-5.2V102.3z M116,136.8l4.5-3.7c1.7-1.4,2.3-2.1,2.3-3.2c0-1.1-0.7-1.7-1.8-1.7c-1,0-1.7,0.6-2.7,1.8
		l-2.1-1.7c1.3-1.8,2.6-2.8,5-2.8c2.8,0,4.6,1.6,4.6,4.2v0c0,2.2-1.2,3.4-3.5,5.2l-2.2,1.7h5.9v2.6h-10V136.8z M131,128.4h-4.1v-2.7
		h11.1v2.7H134v10.7h-3V128.4z M139.6,125.7h6.2c1.5,0,2.7,0.4,3.5,1.2c0.6,0.6,0.9,1.4,0.9,2.3v0c0,1.5-0.8,2.4-1.8,2.9
		c1.6,0.6,2.5,1.5,2.5,3.3v0c0,2.5-2,3.7-5,3.7h-6.4V125.7z M145.2,131.1c1.3,0,2.1-0.4,2.1-1.4v0c0-0.9-0.7-1.4-1.9-1.4h-2.9v2.8
		H145.2z M146,136.5c1.3,0,2.1-0.5,2.1-1.5v0c0-0.9-0.7-1.5-2.2-1.5h-3.4v3H146z M138.8,102.9h-5.7v-8.3h5.7V102.9z M151.5,94.6h5.6
		v8.3h-5.6V94.6z"/>
	<g>
		<path class="st1" d="M77.9,94.5h-6.6l-0.5-2.1l7.4-8.6h2.5v8.2h1.8v2.4h-1.8v2.9h-2.8V94.5z M77.9,92.1v-4.2l-3.6,4.2H77.9z"/>
		<path class="st1" d="M83.8,90.7L83.8,90.7c0-3.9,3-7,7.1-7c2.4,0,3.9,0.7,5.3,1.8l-1.9,2.2c-1-0.9-2-1.4-3.5-1.4
			c-2.2,0-3.9,1.9-3.9,4.2v0c0,2.5,1.7,4.3,4.1,4.3c1.1,0,2-0.3,2.8-0.8v-1.9h-3v-2.6h5.8v5.8c-1.4,1.2-3.3,2.1-5.7,2.1
			C86.6,97.6,83.8,94.7,83.8,90.7z"/>
		<path class="st1" d="M98.7,83.9h6.2c1.5,0,2.7,0.4,3.5,1.2c0.6,0.6,0.9,1.4,0.9,2.3v0c0,1.5-0.8,2.4-1.8,2.9
			c1.6,0.6,2.5,1.5,2.5,3.3v0c0,2.5-2,3.7-5,3.7h-6.4V83.9z M104.3,89.4c1.3,0,2.1-0.4,2.1-1.4v0c0-0.9-0.7-1.4-1.9-1.4h-2.9v2.8
			H104.3z M105.1,94.8c1.3,0,2.1-0.5,2.1-1.5v0c0-0.9-0.7-1.5-2.2-1.5h-3.4v3H105.1z"/>
	</g>
</g>
</svg>
