<?xml version="1.0" encoding="utf-8"?>
<!-- Generator: Adobe Illustrator 19.1.0, SVG Export Plug-In . SVG Version: 6.00 Build 0)  -->
<svg version="1.1" id="Layer_1" xmlns="http://www.w3.org/2000/svg" xmlns:xlink="http://www.w3.org/1999/xlink" x="0px" y="0px"
	 viewBox="0 0 200 200" style="enable-background:new 0 0 200 200;" xml:space="preserve">
<style type="text/css">
	.st0{fill:#B3B3B3;}
	.st1{fill:#666666;}
</style>
<g>
	<path class="st0" d="M99.5,2.5c53.5,0,97,43.5,97,97s-43.5,97-97,97s-97-43.5-97-97S46,2.5,99.5,2.5 M99.5-0.5
		c-55.2,0-100,44.8-100,100s44.8,100,100,100s100-44.8,100-100S154.7-0.5,99.5-0.5L99.5-0.5z"/>
</g>
<path class="st1" d="M131.6,41.9c-15.1,0-27.4,12.3-27.4,27.4s12.3,27.4,27.4,27.4S159,84.4,159,69.3S146.7,41.9,131.6,41.9z
	 M142.4,66.8c-4.3,5.8-8.5,11.6-12.8,17.3c-1.7,2.3-3.4,4.6-5.2,6.9c-0.2-0.1-0.3-0.1-0.5-0.2c0.8-3.5,1.6-6.9,2.5-10.4
	c0.7-2.9,1.4-5.8,2.1-8.6c0.3-1,0-1.4-1.1-1.3c-1.4,0.1-2.9,0-4.3,0c-0.9,0-1.3-0.1-0.9-1.2c1.8-5.6,3.6-11.3,5.4-16.9
	c0.2-0.7,0.5-1,1.3-1c3.3,0,6.7,0.1,10,0c1.3,0,1.2,0.5,0.8,1.4c-1.5,3.5-2.9,7.1-4.4,10.7c-0.7,1.8-0.8,1.8,1.1,1.8
	c1.7,0,3.4,0,5.1,0c0.5,0,1.1-0.3,1.3,0.3C143.2,66.1,142.7,66.5,142.4,66.8z"/>
<g>
	<path class="st1" d="M106.7,113.1c0.3-0.4,0.4-1,0.2-1.6c-2.9-6.8-8.6-11.9-16.1-14.2c-8-2.5-17.8-0.5-25.6,5.3
		c-1,0.7-0.9,2-0.4,2.8c0.6,0.8,1.5,0.9,2.3,0.3c6.8-5,14.7-6.9,21.7-5.2c6.7,1.7,12.1,6.2,14.6,12.1c0.3,0.7,0.8,1.1,1.5,1.2
		c0.1,0,0.2,0,0.3,0C105.8,113.8,106.4,113.5,106.7,113.1z"/>
	<path class="st1" d="M72.2,97.7L72.2,97.7c10.2-5,22.7-3.1,30.3,4.5c0.4,0.4,0.8,0.5,1.2,0.5c0.5,0,1-0.2,1.3-0.6
		c0.6-0.6,0.9-1.7,0-2.6c-8.8-8.8-22.7-10.9-34.6-5.1c-0.9,0.4-1.2,1.4-0.8,2.3C70,97.6,71.1,98.2,72.2,97.7z"/>
	<path class="st1" d="M80.1,90.4c5.5-1.2,11.1-0.5,15.5,1.8c0.3,0.2,0.6,0.2,0.9,0.2c0.7,0,1.3-0.4,1.6-1c0.4-0.8,0.3-1.8-0.7-2.4
		c-5.2-2.8-11.9-3.6-18.3-2.2c-0.6,0.1-1.1,0.5-1.3,1.1c-0.2,0.6,0,1.4,0.4,1.9C78.8,90.4,79.4,90.6,80.1,90.4z"/>
	<path class="st1" d="M103.3,128.6c0,0,0.1,0,0.1,0c0.9,0,1.8-0.6,1.9-1.8c0.7-11-4.8-20.2-14.2-24c-4.7-1.9-10.5-1.7-16.2,0.6
		c-5.3,2.1-9.9,5.9-12.8,10.2c-0.6,0.9-0.2,1.9,0.5,2.4c0.8,0.5,2,0.5,2.6-0.5c5.1-7.9,16-12.1,24.2-9.4c6.1,2,12.9,8.6,12.2,20.7
		C101.6,127.9,102.5,128.6,103.3,128.6z"/>
	<path class="st1" d="M85.5,134.3c2.8-3.8,5.4-11.3,1.9-15.3c-1.6-1.8-4-2.2-6.4-1.1c-2.8,1.3-3.6,5.4-3.9,6.8
		c-0.1,0.3-0.1,0.6-0.2,0.9c-0.5,2.4-0.9,4.5-2.5,6.5c-1.9,2.4-4.7,4.1-8.1,5.1c-1.1,0.3-1.5,1.4-1.2,2.3c0.2,0.9,1.1,1.6,2.2,1.3
		c4.9-1.4,8.9-4.2,11.3-8.1c1.2-1.9,1.6-4,1.9-6l0-0.2c0.3-1.9,0.8-4.9,2.8-5.5c0.7-0.2,1,0,1.2,0.1c0.9,0.8,0.9,3.4,0.6,4.9
		c-0.4,2.3-1.3,4.4-2.7,6.4c-2.6,3.8-7.7,7.3-12.8,8.8c-0.6,0.2-1.1,0.6-1.2,1.3c-0.2,0.7,0,1.4,0.5,1.9c0.3,0.3,0.7,0.5,1.2,0.5
		c0.2,0,0.4,0,0.5-0.1C76.3,143.1,82,139.1,85.5,134.3z"/>
	<path class="st1" d="M93.4,132.5c2-5.6,1.4-11.8-1.3-15.8c-1.6-2.4-4.2-3.9-7.2-4.4c-3.3-0.5-6.6,0.4-9,2.5
		c-2.6,2.2-3.6,5.7-4.4,8.9l-0.2,0.6c-1,3.5-4.1,6.3-7.8,7c-1,0.2-1.5,1-1.3,2c0.2,0.9,1.1,1.8,2.2,1.6c2.8-0.5,5.5-2.1,7.6-4.5
		c1.9-2.1,2.6-4.4,3.3-7c0.1-0.4,0.3-0.9,0.4-1.3c1.2-3.8,3.3-5.8,6.5-6.3c2.4-0.3,4.9,0.6,6.5,2.4c2.8,3.2,2.5,8.7,1.3,12.8
		c-1.5,5-6.1,9.5-13.9,13.7c-0.6,0.3-0.9,0.8-0.9,1.4c0,0.7,0.4,1.3,0.9,1.7c0.3,0.2,0.6,0.3,0.9,0.3c0.3,0,0.6-0.1,0.9-0.2
		C86.3,143.5,91.3,138.4,93.4,132.5z"/>
	<path class="st1" d="M94.1,110.9c-5.5-4.9-14.3-5.2-20.9-0.7c-2.8,1.9-4.6,4.6-6,7.1c-0.3,0.5-0.6,1.1-0.9,1.7
		c-1.1,2-2.1,4-3.9,5.3c-0.6,0.4-0.9,1-0.8,1.7c0.1,0.7,0.5,1.3,1.1,1.6c0.5,0.2,1.1,0.2,1.6-0.2h0c2.5-1.8,4-4.5,5.5-7.1
		c0.8-1.5,1.7-3.1,2.8-4.4c4.3-5.4,12.2-6.7,18.1-3c5.1,3.2,5.6,10,5.2,15.1c-0.5,6-3.6,11.6-8.7,15.9c-0.8,0.6-0.8,1.6-0.2,2.4
		c0.4,0.4,0.9,0.7,1.5,0.7c0.4,0,0.8-0.1,1.2-0.4c5.5-4.7,9-11,9.8-17.9C100.2,120.9,98.3,114.7,94.1,110.9z"/>
	<path class="st1" d="M110.6,79H98v4h12.6c4.6,0,8.4,3.3,8.4,7.8V104h4V90.8C123,84.1,117.5,79,110.6,79z"/>
	<path class="st1" d="M48,90.8c0-4.5,3.9-7.8,8.5-7.8H69v-4H56.5C49.6,79,44,84.1,44,90.8V104h4V90.8z"/>
	<path class="st1" d="M119,144.9c0,4.4-3.8,8.1-8.4,8.1H98v4h12.6c6.9,0,12.4-5.4,12.4-12.1V133h-4V144.9z"/>
	<path class="st1" d="M48,144.9V133h-4v11.9c0,6.7,5.6,12.1,12.5,12.1H69v-4H56.5C51.9,153,48,149.3,48,144.9z"/>
</g>
</svg>
