<?xml version="1.0" encoding="utf-8"?>
<!-- Generator: Adobe Illustrator 19.1.0, SVG Export Plug-In . SVG Version: 6.00 Build 0)  -->
<svg version="1.1" id="Layer_1" xmlns="http://www.w3.org/2000/svg" xmlns:xlink="http://www.w3.org/1999/xlink" x="0px" y="0px"
	 viewBox="0 0 200 200" style="enable-background:new 0 0 200 200;" xml:space="preserve">
<style type="text/css">
	.st0{fill:#B3B3B3;}
	.st1{fill:#666666;}
</style>
<g>
	<path class="st0" d="M99.5,2.5c53.5,0,97,43.5,97,97s-43.5,97-97,97s-97-43.5-97-97S46,2.5,99.5,2.5 M99.5-0.5
		c-55.2,0-100,44.8-100,100s44.8,100,100,100s100-44.8,100-100S154.7-0.5,99.5-0.5L99.5-0.5z"/>
</g>
<g>
	<path class="st1" d="M157,57.7c0-8.1-6.6-14.7-14.7-14.7H57.7C49.6,43,43,49.6,43,57.7v84.7c0,8.1,6.6,14.7,14.7,14.7h84.7
		c8.1,0,14.7-6.6,14.7-14.7V57.7z M152.9,142.3c0,5.8-4.7,10.6-10.6,10.6H57.7c-5.8,0-10.6-4.7-10.6-10.6V57.7
		c0-5.8,4.7-10.6,10.6-10.6h84.7c5.8,0,10.6,4.7,10.6,10.6V142.3z"/>
	<g>
		<path class="st1" d="M57.1,68.9h4.7v7.6H70v-7.6h4.1v20H70v-8.2h-8.2v8.2h-4.7V68.9z"/>
		<path class="st1" d="M77.7,67.7h4.7v4.1h-4.7V67.7z M77.7,73.6h4.7v15.3h-4.7V73.6z"/>
		<path class="st1" d="M84.7,77.7h8.8v4.1h-8.8V77.7z"/>
		<path class="st1" d="M96.5,68.9h9c2.6,0,4.5,0.6,5.8,1.9c1.1,1.1,1.6,2.6,1.6,4.5v0.1c0,3.3-1.7,5.3-4.2,6.3l5.1,7.2h-5.2
			l-4.3-6.5h-3.6v6.5h-4.1V68.9z M105.2,78.3c2.2,0,3.6-1,3.6-2.7v-0.1c0-1.9-1.5-3.1-3.7-3.1h-4.5v5.9H105.2z"/>
		<path class="st1" d="M114.7,81.2L114.7,81.2c0-4.5,3.1-8.1,7.6-8.1c5.2,0,7.5,3.9,7.5,8.3c0,0.3-0.1,1-0.1,1h-10.8
			c0.4,2.4,1.8,3.2,3.8,3.2c1.5,0,2.5-0.4,3.8-1.5l2.5,2.3c-1.4,1.8-3.4,2.9-6.2,2.9C118,89.2,114.7,85.9,114.7,81.2z M125.4,80
			c-0.3-2.4-1.4-3.3-3.3-3.3c-1.8,0-3,0.9-3.4,3.3H125.4z"/>
		<path class="st1" d="M130.6,86.8l1.9-2.9c1.7,1.2,3.5,1.9,5,1.9c1.3,0,1.9-0.5,1.9-1.2v-0.1c0-1-1.7-1.3-3.4-1.8
			c-2.2-0.6-4.8-1.6-4.8-4.7V78c0-3.2,2.7-4.9,5.8-4.9c2,0,4.2,0.7,5.9,1.8l-1.6,3c-1.5-0.9-3.1-1.4-4.2-1.4c-1.1,0-1.7,0.5-1.7,1.1
			v0.1c0,0.9,1.7,1.3,3.3,1.9c2.2,0.7,4.9,1.8,4.9,4.6v0.1c0,3.4-2.7,5-6.1,5C135.2,89.1,132.7,88.4,130.6,86.8z"/>
	</g>
	<g>
		<path class="st1" d="M131.1,120.2c-3.1,0-5.3,2.4-5.3,5.4v0c0,3,2.2,5.5,5.3,5.5c3.1,0,5.3-2.4,5.3-5.4v0
			C136.4,122.7,134.2,120.2,131.1,120.2z"/>
		<polygon class="st1" points="66.7,127 71.3,127 69,121.4 		"/>
		<path class="st1" d="M103.9,120.6h-2.7v10.6h2.7c3.1,0,5.5-2.3,5.5-5.4v0C109.4,122.6,107,120.6,103.9,120.6z"/>
		<path class="st1" d="M50.6,101.2v37.4c0,6.3,4.9,11.4,10.9,11.4h76.9c6,0,10.9-5.1,10.9-11.4v-37.4H50.6z M74.2,134.1l-1.6-3.5
			h-7.4l-1.6,3.5h-3.9l7.5-17h3.5l7.5,17H74.2z M94.1,126.8c0,5.3-3,7.8-7.7,7.8c-4.7,0-7.6-2.6-7.6-7.7V117H83v9.8
			c0,2.8,1.5,4.3,3.8,4.3c2.3,0,3.8-1.4,3.8-4.2V117h3.5V126.8z M112.9,125.7c0,4.9-3.6,8.4-9.1,8.4h-6.8v-17h6.8
			C109.3,117,112.9,120.7,112.9,125.7L112.9,125.7z M119.4,134.1h-3.5v-17h3.5V134.1z M140.5,125.7c0,4.9-3.8,9-9.1,9
			c-5.4,0-9.1-4-9.1-8.9v0c0-4.9,3.8-9,9.1-9C136.8,116.7,140.5,120.7,140.5,125.7L140.5,125.7z"/>
	</g>
</g>
</svg>
