<?xml version="1.0" encoding="UTF-8" standalone="no"?>
<svg width="31px" height="31px" viewBox="0 0 31 31" version="1.1" xmlns="http://www.w3.org/2000/svg" xmlns:xlink="http://www.w3.org/1999/xlink">
    <!-- Generator: sketchtool 41 (35326) - http://www.bohemiancoding.com/sketch -->
    <title>AC50D585-F448-4A15-92C4-7118C758AE8C</title>
    <desc>Created with sketchtool.</desc>
    <defs></defs>
    <g id="Page-1" stroke="none" stroke-width="1" fill="none" fill-rule="evenodd" stroke-linecap="round" stroke-linejoin="round">
        <g id="Mobile_icons" transform="translate(-802.000000, -1355.000000)" stroke="#0DA8AB" stroke-width="2">
            <g id="Call_n_SIM_selected" transform="translate(792.000000, 1346.000000)">
                <path d="M32.9240948,10.5586492 L28.5916475,15.6653692 C28.0261675,16.3312912 28.1084191,17.3293833 28.7743411,17.8948634 L31.5962053,20.2888608 C31.8168611,20.4762997 31.9339115,20.7728801 31.8595687,21.0520612 C31.7164192,21.5835334 31.3652679,22.191721 31.1098133,22.5903252 C30.4154196,23.6619692 29.2377975,25.0404752 27.676598,26.626192 C24.3778324,29.9565928 22.7399174,30.7593372 21.9498271,30.847125 C21.697536,30.8755968 21.450781,30.7625008 21.2862777,30.5687349 L18.9057253,27.7626883 C18.3402452,27.0967663 17.3421531,27.0153056 16.6762311,27.5799947 L11.5584388,31.9227235 C10.8885624,32.4913671 10.8102651,33.4965771 11.383654,34.1617082 L14.986118,38.3407246 C16.237292,39.2921547 18.6471071,39.2146483 21.5512229,38.1026693 C24.9472669,36.8024606 28.6391004,34.2534504 31.9497292,30.9119773 C35.2508674,27.5799947 37.7650788,23.8644348 39.0328613,20.4557367 C39.6109955,18.9032369 39.8965036,17.4836051 39.8909675,16.3115192 C39.8862222,15.3727432 39.687711,14.5984705 39.3072971,14.0266633 L35.1741519,10.3941459 C34.5098117,9.80968469 33.4959019,9.88402753 32.9240948,10.5586492 L32.9240948,10.5586492 Z" id="Stroke-12"></path>
            </g>
        </g>
    </g>
</svg>