<?xml version="1.0" encoding="UTF-8" standalone="no"?>
<svg width="36px" height="32px" viewBox="0 0 36 32" version="1.1" xmlns="http://www.w3.org/2000/svg" xmlns:xlink="http://www.w3.org/1999/xlink">
    <!-- Generator: sketchtool 40.3 (33839) - http://www.bohemiancoding.com/sketch -->
    <title>87B3BA41-F505-4C6D-BED3-0E7DFC0EA573</title>
    <desc>Created with sketchtool.</desc>
    <defs></defs>
    <g id="Page-1" stroke="none" stroke-width="1" fill="none" fill-rule="evenodd">
        <g id="Mobile_icons" transform="translate(-479.000000, -1259.000000)">
            <g id="Camera" transform="translate(472.000000, 1250.000000)">
                <path d="M12.9971412,16.3829787 C10.2372963,16.3829787 8,18.6261025 8,21.3915415 L8,34.9914372 C8,37.7575901 10.230835,40 12.9985481,40 L37.0014519,40 C39.7620738,40 42,37.7568762 42,34.9914372 L42,21.3915415 C42,18.6253887 39.7633622,16.3829787 37.0028588,16.3829787 L35.8171364,16.3829787 C34.7112847,16.3829787 33.5600709,15.5221418 33.2480859,14.4678746 L32.7764331,12.8740544 C32.306711,11.286758 30.5851661,10 28.9202804,10 L21.0797196,10 C19.4197474,10 17.6918292,11.291691 17.2235669,12.8740544 L16.7519141,14.4678746 C16.4389184,15.5255574 15.2936454,16.3829787 14.1828636,16.3829787 L12.9971412,16.3829787 Z" id="Combined-Shape" stroke="#000000" stroke-width="2"></path>
                <circle id="Oval" stroke="#000000" stroke-width="2" cx="25" cy="27" r="7"></circle>
                <ellipse id="Oval-2" fill="#000000" fill-rule="evenodd" cx="13.0163207" cy="21.1387795" rx="1.00326414" ry="1.01261632"></ellipse>
            </g>
        </g>
    </g>
</svg>