<?xml version="1.0" encoding="UTF-8" standalone="no"?>
<svg width="70px" height="71px" viewBox="0 0 70 71" version="1.1" xmlns="http://www.w3.org/2000/svg" xmlns:xlink="http://www.w3.org/1999/xlink">
    <!-- Generator: sketchtool 42 (36781) - http://www.bohemiancoding.com/sketch -->
    <title>FC30F789-BF76-48CC-B28A-126E835D3C04</title>
    <desc>Created with sketchtool.</desc>
    <defs></defs>
    <g id="Page-1" stroke="none" stroke-width="1" fill="none" fill-rule="evenodd">
        <g id="desktop_icons" transform="translate(-785.000000, -1364.000000)" stroke="#0DA8AB">
            <g id="accessories_selected" transform="translate(785.000000, 1364.000000)">
                <g id="Group-2" stroke-width="1" fill-rule="evenodd" transform="translate(16.000000, 54.771429) scale(-1, 1) translate(-16.000000, -54.771429) translate(1.000000, 45.642857)">
                    <ellipse id="Oval-5-Copy-2" stroke-width="2" cx="15" cy="7.1" rx="12" ry="4.05714286"></ellipse>
                    <path d="M22.9374732,10.1428571 C20.8220736,10.7741115 18.0433394,11.1571429 15,11.1571429 C11.9566606,11.1571429 9.17792642,10.7741115 7.06252681,10.1428571 C9.17792642,9.51160283 11.9566606,9.12857143 15,9.12857143 C18.0433394,9.12857143 20.8220736,9.51160283 22.9374732,10.1428571 L22.9374732,10.1428571 Z" id="Combined-Shape" stroke-width="2" stroke-linejoin="round"></path>
                    <path d="M4,12.1714286 C6,13.1857143 9,14.2 14,14.2" id="Path-7" stroke-width="2" stroke-linecap="round"></path>
                    <g id="Dynamic-group" stroke-width="2">
                        <path d="M30,6.08571429 C30,2.72466709 23.2842712,0 15,0 C6.71572875,0 0,2.72466709 0,6.08571429 L0,12.1714286 C0,15.5324758 6.71572875,18.2571429 15,18.2571429 C23.2842712,18.2571429 30,15.5324758 30,12.1714286 L30,6.08571429 Z" id="0:0:0:0"></path>
                    </g>
                </g>
                <path d="M57.0092465,13.1857143 C50.3727831,13.1857143 45,18.6333324 45,25.3533099 L45,67.9641722 C45,69.070516 45.8927712,69.9857143 46.9940603,69.9857143 L59.0059397,69.9857143 C60.1054862,69.9857143 61,69.0761935 61,67.9542428 L61,32.4383842 C61,31.8885698 61.4383446,31.4428571 61.9911322,31.4428571 L64.5,31.4428571 C66.9852814,31.4428571 69,27.3558565 69,22.3142857 C69,17.2727149 66.9852814,13.1857143 64.5,13.1857143 L57.0092465,13.1857143 Z" id="Combined-Shape" stroke-width="2" stroke-linejoin="round"></path>
                <ellipse id="Oval" stroke-width="2" cx="64.5" cy="22.3142857" rx="4.5" ry="9.12857143"></ellipse>
                <ellipse id="Oval" stroke-width="2" cx="64.5" cy="22.3142857" rx="1.5" ry="5.07142857"></ellipse>
                <path d="M45,64.9142857 L61,64.9142857" id="Line" stroke-width="2" stroke-linecap="square"></path>
                <path d="M3.45504707,48.3909716 C1.87163556,44.4085663 1,40.057528 1,35.5 C1,16.4540659 16.2223185,1.01428571 35,1.01428571 C45.3876713,1.01428571 54.6873238,5.73919609 60.9238704,13.1857143 L57.0092465,13.1857143 C50.3727831,13.1857143 45,18.6333324 45,25.3533099 L45,67.9641722 C45,68.1318394 45.0205048,68.2951165 45.0591328,68.4514832 C41.8801941,69.4487186 38.5019248,69.9857143 35,69.9857143 C27.8347608,69.9857143 21.1872015,67.737599 15.7055443,63.8988508 C15.8034692,63.8996158 15.901624,63.9 16,63.9 C24.2842712,63.9 31,61.1753329 31,57.8142857 L31,51.7285714 C31,48.3675242 24.2842712,45.6428571 16,45.6428571 C10.7533647,45.6428571 6.13587247,46.7357223 3.45504707,48.3909716 Z M68.1294031,27.7120208 C68.6989869,30.2147668 69,32.8217285 69,35.5 C69,43.9669101 65.9916653,51.7211484 61,57.7230679 L61,32.4383842 C61,31.8885698 61.4383446,31.4428571 61.9911322,31.4428571 L64.5,31.4428571 C65.9897383,31.4428571 67.3103989,29.9743585 68.1294031,27.7120208 Z" id="Combined-Shape" stroke-width="2" stroke-linecap="round"></path>
                <path d="M10,12.1714286 L60,12.1714286" id="Line" stroke-width="2" stroke-linecap="round"></path>
                <path d="M1,34.4857143 L31,34.4857143" id="Line-Copy" stroke-width="2" stroke-linecap="round"></path>
                <path d="M35,39.5571429 L35,69.9857143" id="Line-Copy-3" stroke-width="2" stroke-linecap="round"></path>
                <path d="M35,12.1714286 L35,30.4285714" id="Line-Copy-4" stroke-width="2" stroke-linecap="round"></path>
                <path d="M39,34.4857143 L44.0990195,34.4857143" id="Line-Copy-2" stroke-width="2" stroke-linecap="round"></path>
                <ellipse id="Oval-2" stroke-width="2" cx="35" cy="34.4857143" rx="4" ry="4.05714286"></ellipse>
            </g>
        </g>
    </g>
</svg>