<svg width="56" height="71" viewBox="0 0 56 71" xmlns="http://www.w3.org/2000/svg"><title>F509DC93-9C39-4AE1-8C30-79B2B91886C3</title><g transform="translate(-7)" fill="none" fill-rule="evenodd"><path d="M32 61.871H11.99A3.992 3.992 0 0 1 8 57.878V5.008a3.992 3.992 0 0 1 3.998-3.994h21.997c2.212 0 4.005 1.801 4.005 4.01v4.105" stroke="#000" stroke-width="2"/><rect stroke="#000" stroke-width="2" x="32" y="9.129" width="30" height="60.857" rx="4"/><ellipse fill="#000" cx="37" cy="13.186" rx="1" ry="1.014"/><ellipse fill="#000" cx="37" cy="17.243" rx="1" ry="1.014"/><ellipse fill="#000" cx="41" cy="13.186" rx="1" ry="1.014"/><ellipse fill="#000" cx="41" cy="17.243" rx="1" ry="1.014"/><ellipse fill="#000" cx="45" cy="13.186" rx="1" ry="1.014"/><ellipse fill="#000" cx="45" cy="17.243" rx="1" ry="1.014"/><ellipse fill="#000" cx="49" cy="13.186" rx="1" ry="1.014"/><ellipse fill="#000" cx="49" cy="17.243" rx="1" ry="1.014"/><ellipse fill="#000" cx="53" cy="13.186" rx="1" ry="1.014"/><ellipse fill="#000" cx="53" cy="17.243" rx="1" ry="1.014"/><ellipse fill="#000" cx="57" cy="13.186" rx="1" ry="1.014"/><ellipse fill="#000" cx="57" cy="17.243" rx="1" ry="1.014"/><ellipse fill="#000" cx="37" cy="21.3" rx="1" ry="1.014"/><ellipse fill="#000" cx="41" cy="21.3" rx="1" ry="1.014"/><ellipse fill="#000" cx="45" cy="21.3" rx="1" ry="1.014"/><ellipse fill="#000" cx="49" cy="21.3" rx="1" ry="1.014"/><ellipse fill="#000" cx="53" cy="21.3" rx="1" ry="1.014"/><ellipse fill="#000" cx="57" cy="21.3" rx="1" ry="1.014"/><ellipse fill="#000" cx="37" cy="25.357" rx="1" ry="1.014"/><ellipse fill="#000" cx="41" cy="25.357" rx="1" ry="1.014"/><ellipse fill="#000" cx="45" cy="25.357" rx="1" ry="1.014"/><ellipse fill="#000" cx="49" cy="25.357" rx="1" ry="1.014"/><ellipse fill="#000" cx="53" cy="25.357" rx="1" ry="1.014"/><ellipse fill="#000" cx="57" cy="25.357" rx="1" ry="1.014"/><ellipse fill="#000" cx="37" cy="29.414" rx="1" ry="1.014"/><ellipse fill="#000" cx="41" cy="29.414" rx="1" ry="1.014"/><ellipse fill="#000" cx="45" cy="29.414" rx="1" ry="1.014"/><ellipse fill="#000" cx="49" cy="29.414" rx="1" ry="1.014"/><ellipse fill="#000" cx="53" cy="29.414" rx="1" ry="1.014"/><ellipse fill="#000" cx="57" cy="29.414" rx="1" ry="1.014"/><ellipse fill="#000" cx="37" cy="33.471" rx="1" ry="1.014"/><ellipse fill="#000" cx="41" cy="33.471" rx="1" ry="1.014"/><ellipse fill="#000" cx="45" cy="33.471" rx="1" ry="1.014"/><ellipse fill="#000" cx="49" cy="33.471" rx="1" ry="1.014"/><ellipse fill="#000" cx="53" cy="33.471" rx="1" ry="1.014"/><ellipse fill="#000" cx="57" cy="33.471" rx="1" ry="1.014"/><ellipse fill="#000" cx="37" cy="37.529" rx="1" ry="1.014"/><ellipse fill="#000" cx="41" cy="37.529" rx="1" ry="1.014"/><ellipse fill="#000" cx="45" cy="37.529" rx="1" ry="1.014"/><ellipse fill="#000" cx="49" cy="37.529" rx="1" ry="1.014"/><ellipse fill="#000" cx="53" cy="37.529" rx="1" ry="1.014"/><ellipse fill="#000" cx="57" cy="37.529" rx="1" ry="1.014"/><ellipse fill="#000" cx="37" cy="41.586" rx="1" ry="1.014"/><ellipse fill="#000" cx="41" cy="41.586" rx="1" ry="1.014"/><ellipse fill="#000" cx="45" cy="41.586" rx="1" ry="1.014"/><ellipse fill="#000" cx="49" cy="41.586" rx="1" ry="1.014"/><ellipse fill="#000" cx="53" cy="41.586" rx="1" ry="1.014"/><ellipse fill="#000" cx="57" cy="41.586" rx="1" ry="1.014"/><ellipse fill="#000" cx="37" cy="45.643" rx="1" ry="1.014"/><ellipse fill="#000" cx="41" cy="45.643" rx="1" ry="1.014"/><ellipse fill="#000" cx="45" cy="45.643" rx="1" ry="1.014"/><ellipse fill="#000" cx="49" cy="45.643" rx="1" ry="1.014"/><ellipse fill="#000" cx="53" cy="45.643" rx="1" ry="1.014"/><ellipse fill="#000" cx="57" cy="45.643" rx="1" ry="1.014"/><ellipse fill="#000" cx="37" cy="49.7" rx="1" ry="1.014"/><ellipse fill="#000" cx="41" cy="49.7" rx="1" ry="1.014"/><ellipse fill="#000" cx="45" cy="49.7" rx="1" ry="1.014"/><ellipse fill="#000" cx="49" cy="49.7" rx="1" ry="1.014"/><ellipse fill="#000" cx="53" cy="49.7" rx="1" ry="1.014"/><ellipse fill="#000" cx="57" cy="49.7" rx="1" ry="1.014"/><ellipse fill="#000" cx="37" cy="53.757" rx="1" ry="1.014"/><ellipse fill="#000" cx="41" cy="53.757" rx="1" ry="1.014"/><ellipse fill="#000" cx="45" cy="53.757" rx="1" ry="1.014"/><ellipse fill="#000" cx="49" cy="53.757" rx="1" ry="1.014"/><ellipse fill="#000" cx="53" cy="53.757" rx="1" ry="1.014"/><ellipse fill="#000" cx="57" cy="53.757" rx="1" ry="1.014"/><ellipse fill="#000" cx="37" cy="57.814" rx="1" ry="1.014"/><ellipse fill="#000" cx="41" cy="57.814" rx="1" ry="1.014"/><ellipse fill="#000" cx="45" cy="57.814" rx="1" ry="1.014"/><ellipse fill="#000" cx="49" cy="57.814" rx="1" ry="1.014"/><ellipse fill="#000" cx="53" cy="57.814" rx="1" ry="1.014"/><ellipse fill="#000" cx="57" cy="57.814" rx="1" ry="1.014"/><ellipse fill="#000" cx="37" cy="61.871" rx="1" ry="1.014"/><ellipse fill="#000" cx="41" cy="61.871" rx="1" ry="1.014"/><ellipse fill="#000" cx="45" cy="61.871" rx="1" ry="1.014"/><ellipse fill="#000" cx="49" cy="61.871" rx="1" ry="1.014"/><ellipse fill="#000" cx="53" cy="61.871" rx="1" ry="1.014"/><ellipse fill="#000" cx="57" cy="61.871" rx="1" ry="1.014"/><ellipse fill="#000" cx="37" cy="65.929" rx="1" ry="1.014"/><ellipse fill="#000" cx="41" cy="65.929" rx="1" ry="1.014"/><ellipse fill="#000" cx="45" cy="65.929" rx="1" ry="1.014"/><ellipse fill="#000" cx="49" cy="65.929" rx="1" ry="1.014"/><ellipse fill="#000" cx="53" cy="65.929" rx="1" ry="1.014"/><ellipse fill="#000" cx="57" cy="65.929" rx="1" ry="1.014"/><rect stroke="#000" stroke-width="2" x="12" y="5.071" width="4" height="7.1" rx="2"/></g></svg>