<?xml version="1.0" encoding="UTF-8" standalone="no"?>
<svg width="56px" height="70px" viewBox="0 0 56 70" version="1.1" xmlns="http://www.w3.org/2000/svg" xmlns:xlink="http://www.w3.org/1999/xlink">
    <!-- Generator: sketchtool 42 (36781) - http://www.bohemiancoding.com/sketch -->
    <title>B9D6EE4F-8570-452A-90DC-09CD316F0A6B</title>
    <desc>Created with sketchtool.</desc>
    <defs></defs>
    <g id="Page-1" stroke="none" stroke-width="1" fill="none" fill-rule="evenodd">
        <g id="desktop_icons" transform="translate(-393.000000, -1256.000000)">
            <g id="butterfly" transform="translate(386.000000, 1256.000000)">
                <path d="M14,1 C14,1 15.7842933,1 17.990053,1 L34.009947,1 C36.2135924,1 38,2.79568082 38,5.0065556 L38,56.9934444 C38,59.206204 36.214822,61 34.0017777,61 L31.7703141,61 L12.0054304,61 C9.79329228,61 8,59.2046438 8,57 L8,53" id="Rectangle-11" stroke="#000000" stroke-width="2" transform="translate(23.000000, 31.000000) rotate(-180.000000) translate(-23.000000, -31.000000) "></path>
                <rect id="Rectangle-11-Copy" stroke="#000000" stroke-width="2" x="32" y="9" width="30" height="60" rx="4"></rect>
                <path d="M32,17 L62,17" id="Line" stroke="#000000" stroke-width="2" stroke-linecap="square"></path>
                <path d="M32,61 L62,61" id="Line-Copy" stroke="#000000" stroke-width="2" stroke-linecap="square"></path>
                <path d="M16,11 L16,13" id="Line" stroke="#000000" stroke-width="2" stroke-linecap="round"></path>
                <circle id="Oval-3-Copy" fill="#000000" fill-rule="evenodd" cx="23" cy="5" r="1"></circle>
                <circle id="Oval-4" stroke="#000000" stroke-width="2" cx="23" cy="12" r="3"></circle>
                <path d="M41,9 L54,9 L54,10.5 C54,11.3284271 53.3374556,12 52.5087347,12 L42.4912653,12 C41.6676622,12 41,11.3342028 41,10.5 L41,9 Z" id="Rectangle-12" stroke="#000000" stroke-width="2"></path>
                <path d="M41,66 L54,66 L54,67.5 C54,68.3284271 53.3374556,69 52.5087347,69 L42.4912653,69 C41.6676622,69 41,68.3342028 41,67.5 L41,66 Z" id="Rectangle-12-Copy" stroke="#000000" stroke-width="2" transform="translate(47.500000, 67.500000) rotate(-180.000000) translate(-47.500000, -67.500000) "></path>
            </g>
        </g>
    </g>
</svg>