<?xml version="1.0" encoding="UTF-8" standalone="no"?>
<svg width="45px" height="46px" viewBox="0 0 45 46" version="1.1" xmlns="http://www.w3.org/2000/svg" xmlns:xlink="http://www.w3.org/1999/xlink">
    <!-- Generator: sketchtool 41 (35326) - http://www.bohemiancoding.com/sketch -->
    <title>7882860C-100E-493D-819B-401B034C3555</title>
    <desc>Created with sketchtool.</desc>
    <defs></defs>
    <g id="Page-1" stroke="none" stroke-width="1" fill="none" fill-rule="evenodd" stroke-linecap="round" stroke-linejoin="round">
        <g id="desktop_icons" transform="translate(-999.000000, -1517.000000)" stroke="#000000" stroke-width="2">
            <g id="Call_n_SIM" transform="translate(986.000000, 1505.000000)">
                <path d="M46.6164798,13.8311025 L40.1710971,21.4283708 C39.3298323,22.419063 39.4521981,23.9039248 40.4428904,24.7451896 L44.6409782,28.30674 C44.969248,28.5855929 45.1433839,29.0268157 45.0327841,29.4421534 C44.8198205,30.2328246 44.2974127,31.1376255 43.9173728,31.730629 C42.8843232,33.324914 41.1323745,35.3757176 38.8097777,37.7347888 C33.9022036,42.6894266 31.4654772,43.8836697 30.2900597,44.0142716 C29.9147261,44.056629 29.5476288,43.8883761 29.3028972,43.6001105 L25.7613489,39.4255545 C24.9200841,38.4348623 23.4352223,38.3136731 22.44453,39.1537613 L14.8307895,45.6144396 C13.8342142,46.4604108 13.7177314,47.9558619 14.5707622,48.9453776 L19.9301484,55.162501 C21.7915203,56.5779437 25.3766026,56.4626375 29.6970562,54.8083461 C34.7493514,52.8740254 40.2416928,49.0818625 45.1669158,44.1107523 C50.0780197,39.1537613 53.8184124,33.6261221 55.7044928,28.5550014 C56.5645831,26.2453471 56.9893336,24.1333607 56.9810974,22.3896482 C56.9740378,20.993031 56.6787127,19.8411453 56.1127709,18.9904678 L49.96389,13.5863709 C48.975551,12.7168679 47.4671573,12.8274677 46.6164798,13.8311025 L46.6164798,13.8311025 Z" id="Stroke-12"></path>
            </g>
        </g>
    </g>
</svg>