<?xml version="1.0" encoding="UTF-8" standalone="no"?>
<svg width="49px" height="43px" viewBox="0 0 49 43" version="1.1" xmlns="http://www.w3.org/2000/svg" xmlns:xlink="http://www.w3.org/1999/xlink">
    <!-- Generator: sketchtool 40.3 (33839) - http://www.bohemiancoding.com/sketch -->
    <title>76526528-236E-4DA4-BD41-36151E06A711</title>
    <desc>Created with sketchtool.</desc>
    <defs></defs>
    <g id="Page-1" stroke="none" stroke-width="1" fill="none" fill-rule="evenodd">
        <g id="desktop_icons" transform="translate(-596.000000, -1627.000000)">
            <g id="Camera-Copy" transform="translate(586.000000, 1613.000000)">
                <path d="M15.9957788,23.7234043 C13.2366864,23.7234043 11,25.967406 11,28.7312084 L11,50.9921958 C11,53.7579297 13.2352889,56 16.0075552,56 L52.9924448,56 C55.7580412,56 58,53.7559982 58,50.9921958 L58,28.7312084 C58,25.9654746 55.7645567,23.7234043 53.0042212,23.7234043 L48.6820012,23.7234043 C47.5791902,23.7234043 46.4300667,22.8710844 46.1121658,21.8090162 L44.936286,17.8805451 C44.4600995,16.2896639 42.7276135,15 41.0821759,15 L27.9178241,15 C26.2654444,15 24.5406475,16.2871683 24.063714,17.8805451 L22.8878342,21.8090162 C22.5713643,22.8663035 21.4269603,23.7234043 20.3179988,23.7234043 L15.9957788,23.7234043 Z" id="Combined-Shape" stroke="#0DA8AB" stroke-width="2"></path>
                <circle id="Oval" stroke="#0DA8AB" stroke-width="2" cx="34.5" cy="38.5" r="10.5"></circle>
                <circle id="Oval-2" fill="#0DA8AB" fill-rule="evenodd" cx="18.5" cy="30.5" r="1.5"></circle>
            </g>
        </g>
    </g>
</svg>