<?xml version="1.0" encoding="UTF-8" standalone="no"?>
<svg width="26px" height="34px" viewBox="0 0 26 34" version="1.1" xmlns="http://www.w3.org/2000/svg" xmlns:xlink="http://www.w3.org/1999/xlink">
    <!-- Generator: sketchtool 40.3 (33839) - http://www.bohemiancoding.com/sketch -->
    <title>300E96AD-7F95-487D-A382-885604A3FE9A</title>
    <desc>Created with sketchtool.</desc>
    <defs></defs>
    <g id="Page-1" stroke="none" stroke-width="1" fill="none" fill-rule="evenodd">
        <g id="Mobile_icons" transform="translate(-165.000000, -1032.000000)" stroke="#000000" stroke-width="2">
            <g id="Online-Shopping-Online_shopping_help" transform="translate(152.000000, 1026.000000)">
                <path d="M14.5483621,17.0049466 C14.5794876,15.8976452 15.4995638,15 16.6104541,15 L35.4259467,15 C36.5336832,15 37.4553805,15.8970262 37.4846518,17.0049465 L38.0127923,36.9950527 C38.0420474,38.1023541 37.1781379,38.9999992 36.0701062,38.9999993 L15.925752,39 C14.823581,39.0000001 13.9553098,38.1029739 13.9864528,36.9950535 L14.5483621,17.0049466 Z" id="Rectangle"></path>
                <path d="M32,15 L32,13.1538462 C32,9.7544235 29.3137085,7 26,7 C22.6855629,7 20,9.75517077 20,13.1538462 L20,15 L32,15 L32,15 Z" id="Combined-Shape"></path>
                <path d="M20,17.254162 L20,15" id="Line" stroke-linecap="round"></path>
                <path d="M32,17.254162 L32,15" id="Line-Copy" stroke-linecap="round"></path>
            </g>
        </g>
    </g>
</svg>