<svg xmlns="http://www.w3.org/2000/svg" xmlns:xlink="http://www.w3.org/1999/xlink" width="57" height="57" viewBox="0 0 57 57">
    <defs>
        <path id="a" d="M0 0v56.862h56.862V0H0z"/>
    </defs>
    <g fill="none" fill-rule="evenodd" transform="translate(-12 -12)">
        <circle cx="40" cy="40" r="29"/>
        <g transform="translate(12 12)">
            <mask id="b" fill="#fff">
                <use xlink:href="#a"/>
            </mask>
            <path fill="#00CAFF" d="M23.973 56.505v-5.637c0-2.004-1.228-3.79-3.089-4.58-6.965-2.957-11.84-9.873-11.84-17.857 0-10.641 8.66-19.387 19.387-19.387S47.819 17.79 47.819 28.43c0 12.556-9.713 24.428-23.846 28.074M28.43 0C12.701 0 0 12.826 0 28.431s12.7 28.431 28.431 28.431c15.73 0 28.431-12.826 28.431-28.43C56.862 12.825 44.162 0 28.431 0" mask="url(#b)"/>
        </g>
        <path d="M0 0h80v80H0z"/>
    </g>
</svg>
