<svg xmlns="http://www.w3.org/2000/svg" width="58" height="58" viewBox="0 0 58 58">
    <g fill="none" fill-rule="evenodd" transform="translate(-11 -11)">
        <circle cx="40" cy="40" r="29" fill="#4DB6AC"/>
        <path fill="#FFF" fill-rule="nonzero" d="M40.5 42.25a2.614 2.614 0 0 0 2.616-2.625l.009-5.25A2.621 2.621 0 0 0 40.5 31.75a2.621 2.621 0 0 0-2.625 2.625v5.25A2.621 2.621 0 0 0 40.5 42.25zm4.637-2.625c0 2.625-2.222 4.463-4.637 4.463-2.415 0-4.638-1.838-4.638-4.463h-1.487c0 2.984 2.38 5.451 5.25 5.88v2.87h1.75v-2.87c2.87-.42 5.25-2.888 5.25-5.88h-1.488z"/>
        <path d="M30 30h21v21H30z"/>
        <path d="M0 0h80v80H0z"/>
    </g>
</svg>
