<svg xmlns="http://www.w3.org/2000/svg" width="64" height="53" viewBox="0 0 64 53">
    <g fill="none" fill-rule="evenodd">
        <path fill="#599DF0" d="M48.503 5.216a4.79 4.79 0 0 0-4.791-4.79H20.289a4.79 4.79 0 0 0-4.79 4.79 4.79 4.79 0 0 1-4.792 4.791H7.083a6.49 6.49 0 0 0-6.49 6.49v29.607a6.49 6.49 0 0 0 6.49 6.49h49.834a6.49 6.49 0 0 0 6.49-6.49V16.498a6.49 6.49 0 0 0-6.49-6.491h-3.624a4.79 4.79 0 0 1-4.79-4.79z"/>
        <path fill="#599DF0" d="M43.712.426s-17.075 52.168-13.49 52.168h26.695a6.49 6.49 0 0 0 6.49-6.49V16.498a6.49 6.49 0 0 0-6.49-6.491h-3.624a4.79 4.79 0 0 1-4.79-4.79A4.79 4.79 0 0 0 43.712.425z" opacity=".467" style="mix-blend-mode:multiply"/>
        <path fill="#EFCA00" d="M45.84 29.164c0-7.644-6.196-13.84-13.84-13.84s-13.84 6.196-13.84 13.84c0 7.645 6.196 13.84 13.84 13.84s13.84-6.195 13.84-13.84z"/>
        <path fill="#3FC772" d="M32 15.324c-7.644 0 9.333 0 9.333 13.84S24.356 43.004 32 43.004s13.84-6.195 13.84-13.84c0-7.644-6.196-13.84-13.84-13.84z"/>
        <path fill="#E7524B" fill-rule="nonzero" d="M12.038 19.324a2.13 2.13 0 1 0-4.26 0 2.13 2.13 0 0 0 4.26 0"/>
        <path d="M-8-14h80v80H-8z"/>
    </g>
</svg>
