<svg xmlns="http://www.w3.org/2000/svg" width="54" height="56" viewBox="0 0 54 56">
    <g fill="none" fill-rule="evenodd">
        <path d="M-13-12h80v80h-80z"/>
        <g transform="translate(1 1)">
            <ellipse cx="26.48" cy="11.736" rx="1.722" ry="1.686"/>
            <path stroke="#001D38" stroke-width="2" d="M.48 53.86L22.1 34.388M52.1 53.86L30.48 34.388M26.407 42.276s-3.04-5.01-6.194-11c-3.4-6.458-6.933-14.054-6.933-17.738 0-7.1 5.877-12.857 13.127-12.857 7.25 0 13.128 5.756 13.128 12.857 0 7.101-13.128 28.738-13.128 28.738zm0-25.91c2.66 0 4.817-2.113 4.817-4.718 0-2.606-2.156-4.718-4.817-4.718-2.66 0-4.816 2.112-4.816 4.718 0 2.605 2.156 4.717 4.816 4.717z"/>
        </g>
    </g>
</svg>
