<svg xmlns="http://www.w3.org/2000/svg" width="45" height="64" viewBox="0 0 45 64">
    <g fill="none" fill-rule="evenodd">
        <path d="M-17-8h80v80h-80z"/>
        <path stroke="#001D38" stroke-width="2" d="M17.94 1.07c-.711 0-1.287.575-1.287 1.285v17.72c0 .709-.576 1.284-1.287 1.284h-1.159c-.694 0-1.263-.55-1.286-1.242L12.3 2.242A1.286 1.286 0 0 0 11.013 1h-.092c-.688 0-1.255.54-1.286 1.227l-.84 17.905a1.286 1.286 0 0 1-1.287 1.227h-1.19c-.711 0-1.288-.575-1.288-1.285V2.354c0-.709-.576-1.284-1.287-1.284-.676 0-1.237.523-1.284 1.196L1.055 21.832c-.78 7.411 7.043 9.443 7.043 9.443V60.69a2.279 2.279 0 0 0 2.28 2.276h.927c1.26 0 2.28-1.02 2.28-2.276V31.275s7.658-2.12 7.043-9.443L19.224 2.266A1.286 1.286 0 0 0 17.94 1.07zM37.541 39.842h.008c.783 0 1.417.633 1.417 1.414v19.32a2.408 2.408 0 0 0 2.411 2.405 2.408 2.408 0 0 0 2.41-2.406V2.557c0-1.18-1.368-1.854-2.289-1.116-3.086 2.475-7.774 10.164-8.31 33.963-.054 2.435 1.913 4.438 4.353 4.438z"/>
    </g>
</svg>
