<svg width="40" height="40" viewBox="0 0 40 40" version="1.1" xmlns="http://www.w3.org/2000/svg" xmlns:xlink="http://www.w3.org/1999/xlink" xmlns:figma="http://www.figma.com/figma/ns">
<title>play-button</title>
<desc>Created using Figma</desc>
<g id="Canvas" transform="translate(800 595)" figma:type="canvas">
<g id="play-button" figma:type="frame">
<g id="Ellipse" figma:type="ellipse">
<mask id="mask0_outline_ins">
<use xlink:href="#path0_fill" fill="white" transform="translate(-800 -595)"/>
</mask>
<g mask="url(#mask0_outline_ins)">
<use xlink:href="#path1_stroke_2x" transform="translate(-800 -595)" fill="#FFFFFF"/>
</g>
</g>
<g id="Polygon" figma:type="regular-polygon">
<use xlink:href="#path2_fill" transform="matrix(-6.93889e-18 1 -1 -6.93889e-18 -769 -586)" fill="#FFFFFF"/>
</g>
</g>
</g>
<defs>
<path id="path0_fill" d="M 40 20C 40 31.0457 31.0457 40 20 40C 8.95431 40 0 31.0457 0 20C 0 8.95431 8.95431 0 20 0C 31.0457 0 40 8.95431 40 20Z"/>
<path id="path1_stroke_2x" d="M 37 20C 37 29.3888 29.3888 37 20 37L 20 43C 32.7025 43 43 32.7025 43 20L 37 20ZM 20 37C 10.6112 37 3 29.3888 3 20L -3 20C -3 32.7025 7.29745 43 20 43L 20 37ZM 3 20C 3 10.6112 10.6112 3 20 3L 20 -3C 7.29745 -3 -3 7.29745 -3 20L 3 20ZM 20 3C 29.3888 3 37 10.6112 37 20L 43 20C 43 7.29745 32.7025 -3 20 -3L 20 3Z"/>
<path id="path2_fill" d="M 11 0L 20.5263 16.5L 1.47372 16.5L 11 0Z"/>
</defs>
</svg>
