<?xml version="1.0" encoding="UTF-8" standalone="no"?>
<svg width="43px" height="15px" viewBox="0 0 43 15" version="1.1" xmlns="http://www.w3.org/2000/svg" xmlns:xlink="http://www.w3.org/1999/xlink">
    <!-- Generator: sketchtool 41 (35326) - http://www.bohemiancoding.com/sketch -->
    <title>04FD950E-005C-4126-B291-589A188B393E</title>
    <desc>Created with sketchtool.</desc>
    <defs></defs>
    <g id="Page-1" stroke="none" stroke-width="1" fill="none" fill-rule="evenodd">
        <g id="desktop_icons" transform="translate(-186.000000, -123.000000)" fill="#525252">
            <g id="HTC_logo_3" transform="translate(186.000000, 123.000000)">
                <g id="HTC_logo_2">
                    <path d="M38.7790164,12.4637679 C36.538727,12.480375 34.4178059,12.4980536 33.8262928,12.4385893 C32.640602,12.334125 31.8359309,11.5139464 31.7410757,10.3048393 C31.6829901,9.50876786 31.678727,8.85198214 31.7362796,8.22841071 C31.8492533,7.05091071 32.7903454,5.92966071 33.8262928,5.87501786 C34.204648,5.85466071 35.207023,5.86376786 37.0177993,5.86376786 L42.2961217,5.87501786 L42.2961217,3.581625 C42.2961217,3.581625 38.0915822,3.57358929 36.8344836,3.56501786 C35.131352,3.56126786 34.2803191,3.55644643 33.738898,3.581625 C32.5489441,3.62823214 31.5534967,4.07180357 30.7781349,4.90055357 C30.0411414,5.67894643 29.6052336,6.91698214 29.5428849,8.17376786 C29.5050493,8.85198214 29.4927928,9.73966071 29.5428849,10.2705536 C29.6633191,11.6184107 30.0747138,12.6732321 30.7781349,13.4221607 C31.5284507,14.2176964 32.660852,14.7239464 33.738898,14.7319821 C34.6229704,14.749125 42.2961217,14.7319821 42.2961217,14.7319821 L42.2961217,12.4385893 C42.2961217,12.4385893 39.9647072,12.4530536 38.7790164,12.4637679" id="Fill-1"></path>
                    <polygon id="Fill-4" points="14.9626717 3.69873214 14.9626717 5.99641071 20.1669217 5.99641071 20.1669217 14.6942679 22.3645796 14.6942679 22.3645796 5.99641071 27.5661651 5.99641071 27.5661651 3.69873214"></polygon>
                    <path d="M12.6739421,8.04466071 C12.6568895,6.80930357 12.2449618,5.74108929 11.4413566,4.88769643 C10.5967184,3.99251786 9.32203421,3.62019643 8.48112632,3.57358929 C7.74839605,3.53126786 4.87662632,3.54091071 4.20144868,3.57358929 C3.24863289,3.61644643 2.55693553,3.91323214 2.20948816,4.18430357 C2.20575789,4.18858929 2.20256053,4.18858929 2.20256053,4.17626786 L2.20256053,-0.000160714286 L0.000106578947,-0.000160714286 L0.000106578947,14.7319821 L2.19883026,14.7319821 C2.19883026,14.7319821 2.15673158,8.70519643 2.20256053,8.04841071 C2.29368553,6.88376786 3.13512632,5.962875 4.20944211,5.86376786 C5.0706,5.79144643 7.66526447,5.80805357 8.47792895,5.86376786 C9.58848158,5.94680357 10.4128697,6.86394643 10.4805474,8.09448214 C10.5007974,8.546625 10.4805474,14.7319821 10.4805474,14.7319821 L12.6739421,14.7319821 C12.6739421,14.7319821 12.6851329,8.57126786 12.6739421,8.04466071" id="Fill-6"></path>
                </g>
            </g>
        </g>
    </g>
</svg>