<?xml version="1.0" encoding="UTF-8" standalone="no"?>
<svg width="28px" height="28px" viewBox="0 0 28 28" version="1.1" xmlns="http://www.w3.org/2000/svg" xmlns:xlink="http://www.w3.org/1999/xlink">
    <!-- Generator: sketchtool 41.1 (35376) - http://www.bohemiancoding.com/sketch -->
    <title>427C06D9-B809-4B77-99DD-F9949E3FE961</title>
    <desc>Created with sketchtool.</desc>
    <defs></defs>
    <g id="Symbols" stroke="none" stroke-width="1" fill="none" fill-rule="evenodd" stroke-linecap="round">
        <g id="vocal" stroke-width="2" stroke="#000000">
            <g id="Page-1" transform="translate(1.000000, 3.000000)" stroke-linejoin="round">
                <g id="Group-14" transform="translate(0.000000, 0.291100)">
                    <polygon id="Stroke-2" points="6 6.7089 0.0001 6.7089 0.0001 15.7089 6 15.7089 12 20.7089 12 0.7089"></polygon>
                </g>
            </g>
            <g id="Page-1" transform="translate(16.000000, 1.000000)">
                <path d="M6.3923,26 C9.0343,22.7196861 10.7673,18.1136647 10.7673,12.9998 C10.7673,7.88691946 8.9943,3.28089811 6.3523,-0.0004" id="Stroke-1"></path>
                <path d="M3.1511,22.9827 C5.2411,20.6167 6.6501,17.1197 6.6501,13.2087 C6.6501,9.2977 5.2001,5.8007 3.1111,3.4347" id="Stroke-3"></path>
                <path d="M0.0403,19.6858 C1.6303,18.2908 2.7593,15.9118 2.7593,13.2088 C2.7593,10.5058 1.5903,8.1268 0.0003,6.7318" id="Stroke-5"></path>
            </g>
        </g>
    </g>
</svg>