<?xml version="1.0" encoding="utf-8"?>
<!-- Generator: Adobe Illustrator 19.1.0, SVG Export Plug-In . SVG Version: 6.00 Build 0)  -->
<svg version="1.1" id="Layer_1" xmlns="http://www.w3.org/2000/svg" xmlns:xlink="http://www.w3.org/1999/xlink" x="0px" y="0px"
	 viewBox="0 0 200 200" style="enable-background:new 0 0 200 200;" xml:space="preserve">
<style type="text/css">
	.st0{fill:#666666;}
	.st1{fill:#999999;}
</style>
<g>
	<g>
		<path class="st0" d="M100.7,49.7c-4.2-5.5-11.6-8.2-16.5-6.2L49,58.2c-4.9,2.1-5.4,8.2-1.2,13.5l53.6,74.2
			c4.2,5.5,11.6,8.2,16.5,6.2l35.1-14.6c4.9-2.1,5.4-8.2,1.2-13.5L100.7,49.7z M51.9,61.8l35.3-14.7c3.1-1.3,7.4,0.4,10,3.8l1.4,1.8
			L52.3,71.9l-1.4-1.8C48.2,66.7,48.8,63,51.9,61.8z M101.4,56.3l45.6,63.8l-46.3,19.2L55,75.6L101.4,56.3z M150.5,133.9l-35.3,14.7
			c-3.1,1.3-7.8-0.4-10.4-3.9l-1.2-1.6l46.3-19.2l1.2,1.6C153.7,128.9,153.6,132.6,150.5,133.9z"/>
		<path class="st0" d="M114.4,153.3c-4.7,0-10-2.7-13.3-7L47.4,72c-2.4-3.1-3.4-6.7-2.6-9.6c0.6-2.1,2-3.8,4.1-4.7L84,43.1
			c5.2-2.1,12.8,0.8,17.1,6.4l0,0l53.6,74.3c2.4,3.1,3.4,6.7,2.6,9.6c-0.6,2.1-2,3.8-4.1,4.7l-35.1,14.6
			C116.9,153.1,115.7,153.3,114.4,153.3z M87.7,43.4c-1.2,0-2.3,0.2-3.4,0.6L49.2,58.7c-1.8,0.8-3,2.1-3.5,4
			c-0.7,2.6,0.2,5.9,2.5,8.8l53.6,74.2c4,5.2,11.1,8,15.9,6l35.1-14.6c1.8-0.8,3-2.1,3.5-4c0.7-2.6-0.2-5.9-2.5-8.8L100.3,50
			C97.1,45.9,92.1,43.4,87.7,43.4z M112.8,149.5c-3,0-6.4-1.7-8.5-4.5l-1.6-2.1l47.2-19.6l1.5,1.9c1.7,2.1,2.4,4.3,1.9,6.2
			c-0.3,1.4-1.2,2.4-2.6,3l0,0L115.3,149C114.6,149.4,113.7,149.5,112.8,149.5z M104.3,143.3l0.8,1.1c2.5,3.3,7,5,9.8,3.7l35.3-14.7
			c1.1-0.5,1.8-1.3,2-2.3c0.4-1.6-0.2-3.5-1.7-5.3l-1-1.3L104.3,143.3z M100.6,140L54.3,75.3l47.3-19.6l46.2,64.6L100.6,140z
			 M55.8,75.8l45.1,63l45.3-18.8l-45-63L55.8,75.8z M52.1,72.5l-1.7-2.1c-1.5-2-2.1-4.1-1.6-6c0.4-1.4,1.4-2.5,2.8-3.1L87,46.6
			c3.2-1.4,7.8,0.3,10.6,3.9l1.8,2.3L52.1,72.5z M89.5,47.1c-0.7,0-1.4,0.1-2.1,0.4L52.1,62.2c-1.2,0.5-1.9,1.3-2.2,2.4
			c-0.4,1.5,0.1,3.4,1.4,5.1l1.2,1.5l45.4-18.8l-1-1.3C94.9,48.6,92,47.1,89.5,47.1z"/>
	</g>
	<circle class="st0" cx="61.2" cy="63.4" r="3.3"/>
	<g>
		<path class="st0" d="M156.7,129.3l-2.2,6c0-0.2,0-0.5,0-0.7L112,150.8c-0.4,0.2-0.8,0.3-1.3,0.3c-0.1,0-0.1,0-0.2,0l-1.1,0.1
			c-0.1,0-0.1,0-0.2,0c0-0.1-0.2-0.2-0.4-0.5c-2-0.7-4-2.1-5.4-3.8l-1.2-1.6l1.9-0.8c-0.8-1.1-1.8-2.4-2.8-3.7l-1.5,0.6
			c-0.2-0.2-0.3-0.4-0.4-0.6l-0.4,0.2L53.8,77.8c0,0,1.5-0.6,1.6-0.6c-1-1.3-1.9-2.5-2.8-3.6L51,74.2c-0.2-0.2-0.3-0.4-0.5-0.6
			l-0.1,0l-0.8-1.2c-1.2-1.6-1.7-3.2-1.7-4.6c-1-1.3,1-8.9,0.4-8.2c-7.4,3.8-5,13.9-1.4,18.5l51.7,71.7c3.6,4.6,7.1,8.7,13.9,7.4
			c3.1-0.7,3.1-0.7,4.4-1.3l35.1-14.6C156.2,139.9,159.1,135.3,156.7,129.3z"/>
		<path class="st0" d="M110.2,158c-5.8,0-9.1-4.1-11.9-7.8L46.6,78.4c-2.3-2.9-4.3-8.2-3.3-13c0.6-2.8,2.2-4.9,4.7-6.3l0.2-0.2
			l0.4,0.1c0.5,0.2,0.4,0.5,0.1,2.6c-0.3,1.7-0.8,5.2-0.4,5.8l0.1,0.1l0,0.2c-0.1,1.4,0.5,2.8,1.5,4.2l0.7,1l0,0l0.1,0.1
			c0.1,0.1,0.2,0.2,0.3,0.3c0,0,0,0,0,0l1.5-0.6l0.2,0.3c0.7,0.8,1.4,1.7,2.1,2.7l1.3,1.7l-1,0c0,0-0.4,0.2-0.8,0.3L99,140.4
			l0.5-0.2l0.2,0.4c0,0.1,0.1,0.2,0.1,0.2l1.5-0.6l0.3,0.4c1,1.3,2,2.5,2.8,3.6l0.4,0.5l-1.9,0.8l0.8,1.1c1.3,1.7,3.2,3,5.2,3.7
			l0.2,0.1l0.1,0.1c0.1,0.1,0.2,0.2,0.2,0.2c0,0,0,0,0,0l1.2-0.1c0.4,0,0.7-0.1,1.1-0.3l42.7-16.3l2.3-6.1l0.5,1.2
			c1.2,2.9,1.2,5.7,0.1,8.1c-0.9,2.1-2.8,3.8-5,4.6l-35.1,14.6c-1.3,0.6-1.4,0.6-4.5,1.4C111.8,157.9,111,158,110.2,158z M47.9,60.5
			c-1.9,1.2-3.1,2.9-3.6,5.2c-0.9,4.2,0.9,9.3,3.1,12.1L99,149.6c3.9,5,7.1,8.4,13.4,7.2c3.1-0.7,3.1-0.7,4.3-1.3l35.2-14.6
			c2-0.7,3.6-2.2,4.4-4.1c0.8-1.8,0.9-3.9,0.3-6L154,138l0-2.7l-41.9,16c-0.4,0.2-0.9,0.3-1.5,0.3l-0.2,0l-1.8,0.1l0-0.3
			c-0.1-0.1-0.1-0.2-0.2-0.2c-2.1-0.7-4.1-2.2-5.5-4l-1.6-2.1l1.9-0.8c-0.7-0.9-1.4-1.9-2.2-2.9l-1.4,0.6l-0.2-0.2
			c-0.1-0.1-0.2-0.2-0.2-0.3l-0.3,0.2L53,77.6l0.6-0.2c0.4-0.2,0.7-0.3,1-0.4l-0.3-0.4c-0.7-0.8-1.3-1.6-1.9-2.4l-1.5,0.6l-0.2-0.2
			c-0.1-0.1-0.2-0.2-0.3-0.4c0,0-0.1-0.1-0.1-0.1l-0.1,0l-1-1.4c-1.2-1.5-1.8-3.2-1.7-4.7c-0.6-1-0.2-3.4,0.3-6.4
			C47.8,61.2,47.8,60.8,47.9,60.5z"/>
	</g>
	<path class="st0" d="M58.9,140.2c-1,0-1.8-0.7-2-1.6c-0.5-2.9-1.8-7.5-3-8.8c-1.2-1.2-5.8-2.4-8.6-2.9c-1-0.2-1.7-1-1.7-2
		c0-1,0.7-1.8,1.7-2c2.9-0.5,7.5-1.8,8.8-3c1.2-1.2,2.4-5.8,2.9-8.7c0.2-1,1-1.7,2-1.7h0c1,0,1.8,0.7,2,1.7c0.5,2.9,1.8,7.5,3,8.8
		c1.2,1.2,5.3,2.4,7.8,2.9c0.9,0.2,1.6,1,1.6,1.9c0,1-0.7,1.8-1.6,2c-2.5,0.5-6.7,1.8-7.9,3.1c-1.2,1.2-2.4,5.8-2.9,8.6
		C60.7,139.5,59.8,140.2,58.9,140.2C58.9,140.2,58.9,140.2,58.9,140.2z M53.1,124.9c1.4,0.6,2.7,1.3,3.5,2.1
		c0.8,0.8,1.6,2.2,2.2,3.7c0.6-1.4,1.3-2.8,2.1-3.6c0.8-0.8,2.1-1.6,3.5-2.1c-1.3-0.6-2.6-1.3-3.5-2.1c-0.8-0.9-1.5-2.2-2.1-3.6
		c-0.6,1.4-1.2,2.7-2.1,3.6C55.9,123.6,54.6,124.3,53.1,124.9z"/>
	<path class="st0" d="M78.1,155c-0.9,0-1.7-0.6-1.9-1.5c-0.3-1-1.1-3-1.9-3.8c-0.8-0.9-2.9-1.6-3.7-1.9c-0.9-0.2-1.5-1-1.5-1.9
		s0.6-1.7,1.5-1.9l0,0c1-0.3,3-1.1,3.8-1.9c0.8-0.8,1.6-2.8,1.9-3.8c0.2-0.9,1-1.5,1.9-1.5c0,0,0,0,0,0c0.9,0,1.7,0.6,1.9,1.5
		c0.3,1.1,1.1,3.1,1.9,3.9c0.8,0.8,2.7,1.5,3.8,1.8c0.9,0.2,1.5,1,1.5,1.9c0,0.9-0.6,1.7-1.5,1.9c-1.1,0.3-3.1,1.1-3.9,1.9
		c-0.9,0.9-1.6,2.9-1.9,3.8C79.7,154.4,79,155,78.1,155z M75.9,145.9c0.4,0.3,0.9,0.6,1.2,1c0.3,0.3,0.7,0.7,0.9,1.2
		c0.3-0.4,0.6-0.9,1-1.2c0.4-0.4,0.8-0.7,1.2-1c-0.4-0.3-0.8-0.6-1.1-0.9c-0.4-0.4-0.7-0.8-1-1.3c-0.3,0.4-0.6,0.8-1,1.2
		C76.8,145.3,76.4,145.6,75.9,145.9z"/>
</g>
<g>
	<path class="st1" d="M100.5,2.2c54,0,98,44,98,98s-44,98-98,98s-98-44-98-98S46.5,2.2,100.5,2.2 M100.5,0.2
		c-55.2,0-100,44.8-100,100s44.8,100,100,100s100-44.8,100-100S155.7,0.2,100.5,0.2L100.5,0.2z"/>
</g>
</svg>
