<?xml version="1.0" encoding="utf-8"?>
<!-- Generator: Adobe Illustrator 19.1.0, SVG Export Plug-In . SVG Version: 6.00 Build 0)  -->
<svg version="1.1" id="Layer_1" xmlns="http://www.w3.org/2000/svg" xmlns:xlink="http://www.w3.org/1999/xlink" x="0px" y="0px"
	 viewBox="0 0 200 200" style="enable-background:new 0 0 200 200;" xml:space="preserve">
<style type="text/css">
	.st0{fill:#999999;}
	.st1{fill:#666666;}
</style>
<g>
	<path class="st0" d="M100,2c54,0,98,44,98,98s-44,98-98,98S2,154,2,100S46,2,100,2 M100,0C44.8,0,0,44.8,0,100s44.8,100,100,100
		s100-44.8,100-100S155.2,0,100,0L100,0z"/>
</g>
<g>
	<path class="st1" d="M99.6,81.4c-10.6,0-19.3,8.6-19.3,19.3c0,1.6,1.3,2.9,2.9,2.9c1.6,0,2.9-1.3,2.9-2.9c0-7.4,6-13.5,13.5-13.5
		c1.6,0,2.9-1.3,2.9-2.9C102.5,82.7,101.1,81.4,99.6,81.4z"/>
	<path class="st1" d="M40,72.2c-1.7,0-3.2,1.4-3.2,3.1v66.4c0,1.7,1.5,2.7,3.2,2.7h119.1c1.7,0,3.2-1.1,3.2-2.7V75.3
		c0-1.7-1.5-3.1-3.2-3.1h-22.4l-21.2-17.8c-0.6-0.5-1.3-0.6-2-0.6h-28c-0.7,0-1.4,0.2-2,0.6L62.4,72.2H40z M156,138.7H43.1V95h23.8
		l-0.2,0.9c-0.3,1.8-0.5,3.7-0.5,5.6c0,18.3,14.9,33.2,33.2,33.2c18.3,0,33.2-14.9,33.2-33.2c0-1.9-0.2-3.7-0.5-5.5l-0.2-0.9H156
		V138.7z M72.4,101.4c0-15,12.2-27.1,27.1-27.1c15,0,27.1,12.2,27.1,27.1c0,15-12.2,27.1-27.1,27.1
		C84.6,128.5,72.4,116.3,72.4,101.4z M65.5,77.6l21.1-18.1h25.8l21.1,18.1c0.6,0.5,1.3,0.9,2,0.9H156v10.1h-25.7l-0.2-0.4
		c-5.3-12.2-17.3-20.1-30.5-20.1C86.3,68.1,74.3,76,69,88.3l-0.2,0.5l-0.6-0.1c-0.1,0-0.1-0.1-0.2-0.1H43.1V78.5h20.4
		C64.3,78.5,65,78,65.5,77.6z"/>
</g>
</svg>
