<?xml version="1.0" encoding="utf-8"?>
<!-- Generator: Adobe Illustrator 19.1.0, SVG Export Plug-In . SVG Version: 6.00 Build 0)  -->
<svg version="1.1" id="Layer_1" xmlns="http://www.w3.org/2000/svg" xmlns:xlink="http://www.w3.org/1999/xlink" x="0px" y="0px"
	 viewBox="0 0 200 200" style="enable-background:new 0 0 200 200;" xml:space="preserve">
<style type="text/css">
	.st0{fill:#666666;}
	.st1{fill:#999999;}
</style>
<g>
	<g>
		<rect x="152.1" y="93.9" class="st0" width="13.1" height="13.1"/>
		<rect x="137.8" y="109.6" class="st0" width="13" height="13"/>
		<rect x="151.9" y="123.5" class="st0" width="13.1" height="13.1"/>
		<rect x="50.2" y="92.2" class="st0" width="13.1" height="13.1"/>
		<rect x="35.2" y="77.9" class="st0" width="13" height="13"/>
		<rect x="35.3" y="106.5" class="st0" width="13" height="13"/>
	</g>
	<path class="st0" d="M136.7,51.1c0-6.6-5.4-12-12-12H77.2c-6.6,0-12,5.4-12,12v98.7c0,6.6,5.4,12,12,12h47.5c6.6,0,12-5.4,12-12
		V51.1z M77.3,43.5H125c4.2,0,7.3,3.2,7.3,7.3V53H69.7v-2.2C69.7,46.7,73.1,43.5,77.3,43.5z M132.3,57.4v86H69.7v-86
		C69.7,57.4,132.3,57.4,132.3,57.4z M125,157.4H77.3c-4.2,0-7.6-3.4-7.6-7.6v-1.9h62.6v1.9C132.3,154,129.2,157.4,125,157.4z"/>
	<circle class="st0" cx="86.2" cy="48.6" r="3.3"/>
	<g>
		<rect x="101.5" y="59.9" class="st0" width="13.4" height="13.4"/>
		<rect x="86.2" y="75.3" class="st0" width="13.3" height="13.3"/>
		<rect x="117.6" y="75.5" class="st0" width="13.5" height="13.5"/>
		<rect x="70.8" y="112.7" class="st0" width="13.5" height="13.5"/>
		<rect x="116.8" y="112.8" class="st0" width="13.5" height="13.5"/>
		<rect x="86.2" y="128.2" class="st0" width="13.3" height="13.3"/>
	</g>
	<g>
		<path class="st0" d="M106.3,100.9c0-0.8,0.3-1.6,0.8-2.1s1.2-0.8,2-0.8c0.4,0,0.9,0,2.1,0c0.8,0,3.7,0,3.7,0v1.5h-3.5
			c-1.2,0-1.9,0-2.1,0c-0.7,0-1.3,0.7-1.4,1.5c0,0.4,0,0.8,0,1.3c0.1,0.8,0.6,1.3,1.4,1.4c0.4,0,1.8,0,3.3,0c0.8,0,2.4,0,2.4,0v1.5
			c0,0-5.1,0-5.7,0c-0.7,0-1.5-0.3-2-0.8s-0.7-1.1-0.8-2C106.2,101.9,106.2,101.4,106.3,100.9"/>
		<polygon class="st0" points="96.6,98.1 105.1,98.1 105.1,99.6 101.6,99.6 101.6,105.1 100.1,105.1 100.1,99.6 96.6,99.6 		"/>
		<path class="st0" d="M86.6,95.7h1.5v2.7l0,0c0.2-0.2,0.7-0.4,1.3-0.4c0.5,0,2.4,0,2.9,0c0.6,0,1.4,0.3,2,0.8
			c0.5,0.5,0.8,1.2,0.8,2c0,0.3,0,4.3,0,4.3h-1.5c0,0,0-3.9,0-4.2c0-0.8-0.6-1.4-1.3-1.4c-0.5,0-2.3-0.1-2.8,0
			c-0.7,0.1-1.3,0.6-1.3,1.4c0,0.4,0,4.3,0,4.3h-1.5L86.6,95.7L86.6,95.7z"/>
	</g>
</g>
<g>
	<path class="st1" d="M100,2c54,0,98,44,98,98s-44,98-98,98S2,154,2,100S46,2,100,2 M100,0C44.8,0,0,44.8,0,100s44.8,100,100,100
		s100-44.8,100-100S155.2,0,100,0L100,0z"/>
</g>
</svg>
