<?xml version="1.0" encoding="UTF-8" standalone="no"?>
<svg width="57px" height="70px" viewBox="0 0 57 70" version="1.1" xmlns="http://www.w3.org/2000/svg" xmlns:xlink="http://www.w3.org/1999/xlink">
    <!-- Generator: sketchtool 42 (36781) - http://www.bohemiancoding.com/sketch -->
    <title>1C7F4DC7-A729-44A9-9EA0-F290ECD04896</title>
    <desc>Created with sketchtool.</desc>
    <defs></defs>
    <g id="Page-1" stroke="none" stroke-width="1" fill="none" fill-rule="evenodd">
        <g id="desktop_icons" transform="translate(-891.000000, -1364.000000)" stroke="#0DA8AB" stroke-width="2">
            <g id="U_selected" transform="translate(885.000000, 1364.000000)">
                <path d="M13.8,1 C13.8,1 15.5975479,1 17.799728,1 L33.4574148,1 C35.6664036,1 37.4571429,2.79568082 37.4571429,5.0065556 L37.4571429,56.9934444 C37.4571429,59.206204 35.6644935,61 33.464168,61 L31.3164525,61 L11.8869789,61 C9.67714147,61 7.88571429,59.2046438 7.88571429,57 L7.88571429,53" id="Rectangle-11" transform="translate(22.671429, 31.000000) rotate(-180.000000) translate(-22.671429, -31.000000) "></path>
                <rect id="Rectangle-11-Copy" x="31.5428571" y="9" width="29.5714286" height="60" rx="4"></rect>
                <path d="M31.5428571,17 L61.1142857,17" id="Line" stroke-linecap="square"></path>
                <path d="M31.5428571,61 L61.1142857,61" id="Line-Copy" stroke-linecap="square"></path>
                <rect id="Rectangle" x="18.7285714" y="9" width="5.91428571" height="6" rx="1"></rect>
                <path d="M28.5857143,11 L28.5857143,13" id="Line" stroke-linecap="round"></path>
                <path d="M50.2714286,13 L43.3714286,13" id="Line-Copy-2" stroke-linecap="round"></path>
                <path d="M48.3,65 L44.3571429,65" id="Line-Copy-3" stroke-linecap="round"></path>
            </g>
        </g>
    </g>
</svg>