<?xml version="1.0" encoding="UTF-8" standalone="no"?>
<svg width="26px" height="28px" viewBox="0 0 26 28" version="1.1" xmlns="http://www.w3.org/2000/svg" xmlns:xlink="http://www.w3.org/1999/xlink">
    <!-- Generator: sketchtool 40.3 (33839) - http://www.bohemiancoding.com/sketch -->
    <title>0D44E0F5-57B0-400F-BDDA-F7157B8E248B</title>
    <desc>Created with sketchtool.</desc>
    <defs></defs>
    <g id="Page-1" stroke="none" stroke-width="1" fill="none" fill-rule="evenodd" stroke-linecap="round" stroke-linejoin="round">
        <g id="Mobile_icons" transform="translate(-564.000000, -1356.000000)" stroke="#0DA8AB">
            <g id="Update_selected" transform="translate(552.000000, 1346.000000)">
                <g transform="translate(13.000000, 11.000000)">
                    <path d="M7.63636363,3 L2.99617578,3 C1.3414336,3 2.15387879e-08,4.33599155 1.96098695e-08,6.00684834 L5.45135421e-14,22.9931517 C-1.91706503e-09,24.6537881 1.34177063,26 2.99109041,26 L21.0089096,26 C22.6608432,26 24,24.6640085 24,22.9931517 L24,6.00684835 C24,4.34621187 22.6523497,3.00000002 21.0038242,3.00000001 L16.3636364,3" id="Stroke-1" stroke-width="2"></path>
                    <path d="M12,0 L12,15" id="Stroke-3" stroke-width="2"></path>
                    <polyline id="Stroke-5" stroke-width="2" points="16 12 11.9999998 16 8 12"></polyline>
                    <path d="M5,21 L19,21" id="Stroke-7" stroke-width="2"></path>
                </g>
            </g>
        </g>
    </g>
</svg>