<?xml version="1.0" encoding="UTF-8" standalone="no"?>
<svg width="70px" height="70px" viewBox="0 0 70 70" version="1.1" xmlns="http://www.w3.org/2000/svg" xmlns:xlink="http://www.w3.org/1999/xlink">
    <!-- Generator: sketchtool 39.1 (31720) - http://www.bohemiancoding.com/sketch -->
    <title>B6A97619-DA08-4079-A36D-127E72582208</title>
    <desc>Created with sketchtool.</desc>
    <defs></defs>
    <g id="Symbols" stroke="none" stroke-width="1" fill="none" fill-rule="evenodd" stroke-linecap="round" stroke-linejoin="round">
        <g id="Application" stroke="#000000" stroke-width="2">
            <g id="Page-1" transform="translate(10.000000, 10.000000)">
                <path d="M19.7039,22.7039 L2.9999,22.7039 C1.3429,22.7039 -0.0001,21.3609 -0.0001,19.7039 L-0.0001,2.9999 C-0.0001,1.3429 1.3429,-0.0001 2.9999,-0.0001 L19.7039,-0.0001 C21.3609,-0.0001 22.7039,1.3429 22.7039,2.9999 L22.7039,19.7039 C22.7039,21.3609 21.3609,22.7039 19.7039,22.7039 L19.7039,22.7039 Z" id="Stroke-1"></path>
                <path d="M19.7039,50.75 L2.9999,50.75 C1.3429,50.75 -0.0001,49.407 -0.0001,47.75 L-0.0001,31.046 C-0.0001,29.389 1.3429,28.046 2.9999,28.046 L19.7039,28.046 C21.3609,28.046 22.7039,29.389 22.7039,31.046 L22.7039,47.75 C22.7039,49.407 21.3609,50.75 19.7039,50.75 L19.7039,50.75 Z" id="Stroke-3"></path>
                <path d="M47.75,22.7039 L31.046,22.7039 C29.389,22.7039 28.046,21.3609 28.046,19.7039 L28.046,2.9999 C28.046,1.3429 29.389,-0.0001 31.046,-0.0001 L47.75,-0.0001 C49.407,-0.0001 50.75,1.3429 50.75,2.9999 L50.75,19.7039 C50.75,21.3609 49.407,22.7039 47.75,22.7039 L47.75,22.7039 Z" id="Stroke-5"></path>
                <path d="M47.75,50.75 L31.046,50.75 C29.389,50.75 28.046,49.407 28.046,47.75 L28.046,31.046 C28.046,29.389 29.389,28.046 31.046,28.046 L47.75,28.046 C49.407,28.046 50.75,29.389 50.75,31.046 L50.75,47.75 C50.75,49.407 49.407,50.75 47.75,50.75 L47.75,50.75 Z" id="Stroke-7"></path>
            </g>
        </g>
    </g>
</svg>