<?xml version="1.0" encoding="UTF-8" standalone="no"?>
<svg width="70px" height="70px" viewBox="0 0 70 70" version="1.1" xmlns="http://www.w3.org/2000/svg" xmlns:xlink="http://www.w3.org/1999/xlink">
    <!-- Generator: sketchtool 40.3 (33839) - http://www.bohemiancoding.com/sketch -->
    <title>F2716757-4299-42DC-A5C7-62B2BAEA1F95</title>
    <desc>Created with sketchtool.</desc>
    <defs></defs>
    <g id="Symbols" stroke="none" stroke-width="1" fill="none" fill-rule="evenodd" stroke-linecap="round" stroke-linejoin="round">
        <g id="live_chat" stroke="#000000" stroke-width="2">
            <g id="Page-1" transform="translate(7.000000, 14.000000)">
                <path d="M38.8745,8.8246 C42.8125,8.3186 46.9195,9.3336 50.1795,11.8786 C56.3875,16.7256 57.7125,25.0576 54.1655,31.3996 L57.1865,39.0006 C57.5105,39.8156 56.7025,40.6236 55.8875,40.2996 L48.2865,37.2786 C43.5475,39.9296 37.6975,39.8596 33.0205,37.0646" id="Stroke-1"></path>
                <path d="M33.5818169,3.75519693 C26.4764583,-1.3946979 16.6493893,-1.22628996 9.69457205,4.1258937 C1.41678431,10.4974935 -0.36678335,21.5356872 4.32891462,29.9281822 L0.0728775429,40.6325495 C-0.250138623,41.4446943 0.555407865,42.2488671 1.3679331,41.9269987 L12.0773148,37.6729544 C19.7359882,41.9539041 29.5979509,40.8467963 36.1091194,34.3386765 C44.7308595,25.7209732 43.8884254,11.224936 33.5818169,3.75519693 Z" id="Stroke-3"></path>
            </g>
        </g>
    </g>
</svg>