<?xml version="1.0" encoding="UTF-8" standalone="no"?>
<svg width="100px" height="100px" viewBox="0 0 100 100" version="1.1" xmlns="http://www.w3.org/2000/svg" xmlns:xlink="http://www.w3.org/1999/xlink">
    <!-- Generator: sketchtool 41 (35326) - http://www.bohemiancoding.com/sketch -->
    <title>A0C21A7E-D3B5-494D-BCC2-AD14BB573DC3</title>
    <desc>Created with sketchtool.</desc>
    <defs>
        <filter x="-50%" y="-50%" width="200%" height="200%" filterUnits="objectBoundingBox" id="filter-1">
            <feOffset dx="0" dy="0" in="SourceAlpha" result="shadowOffsetOuter1"></feOffset>
            <feGaussianBlur stdDeviation="2" in="shadowOffsetOuter1" result="shadowBlurOuter1"></feGaussianBlur>
            <feColorMatrix values="0 0 0 0 0   0 0 0 0 0   0 0 0 0 0  0 0 0 0.15 0" type="matrix" in="shadowBlurOuter1" result="shadowMatrixOuter1"></feColorMatrix>
            <feMerge>
                <feMergeNode in="shadowMatrixOuter1"></feMergeNode>
                <feMergeNode in="SourceGraphic"></feMergeNode>
            </feMerge>
        </filter>
    </defs>
    <g id="Symbols" stroke="none" stroke-width="1" fill="none" fill-rule="evenodd">
        <g id="Play">
            <g filter="url(#filter-1)" transform="translate(2.000000, 2.000000)">
                <path d="M96,48 C96,21.4906667 74.5093333,0 48,0 C21.4906667,0 0,21.4906667 0,48 C0,74.5093333 21.4906667,96 48,96 C74.5093333,96 96,74.5093333 96,48 L96,48 Z" id="Stroke-1" stroke="#FFFFFF" stroke-width="2"></path>
                <path d="M66.2910038,47.4882322 C68.2074912,48.5946985 68.2116131,50.3862551 66.2910038,51.4951012 L39.4701073,66.9798988 C37.55362,68.0863652 36,67.1941565 36,64.9764644 L36,34.006869 C36,31.7939363 37.549498,30.8945884 39.4701073,32.0034345 L66.2910038,47.4882322 Z" id="Stroke-3" fill="#FFFFFF"></path>
            </g>
        </g>
    </g>
</svg>