<?xml version="1.0" encoding="UTF-8" standalone="no"?>
<svg width="36px" height="24px" viewBox="0 0 36 24" version="1.1" xmlns="http://www.w3.org/2000/svg" xmlns:xlink="http://www.w3.org/1999/xlink">
    <!-- Generator: sketchtool 40.3 (33839) - http://www.bohemiancoding.com/sketch -->
    <title>08E5EB14-641E-43B6-A712-BCD2C79DDEF4</title>
    <desc>Created with sketchtool.</desc>
    <defs></defs>
    <g id="Page-1" stroke="none" stroke-width="1" fill="none" fill-rule="evenodd" stroke-linecap="round" stroke-linejoin="round">
        <g id="Mobile_icons" transform="translate(-238.000000, -1037.000000)" stroke="#000000">
            <g id="back_up_n_transfer_icon" transform="translate(232.000000, 1026.000000)">
                <path d="M29,34 L29,26" id="Stroke-1" stroke-width="2"></path>
                <path d="M23.9999294,33.9974597 L13.9998809,33.9974597 C10.0735136,34.1069232 7,30.6632733 7,26.6649731 C7,22.7200954 10.0735136,19.3387716 13.9998809,19.3324866 C14.0970313,19.3387716 14.3255323,19.3319628 14.4998831,19.3324866 C16.0885401,15.0550282 20.0455576,12 24.4999272,12 C29.1840979,12 33.0541149,14.8984272 34.4999713,18.8087375 C38.4999883,19.3324866 40.9999988,22.9987298 41,26.6649731 C41.0000012,30.3312164 37.9999861,33.9974597 33.9999684,33.9974597" id="Stroke-3" stroke-width="2"></path>
                <polyline id="Stroke-5" stroke-width="1.5" points="26 28 28.9999999 25 32 28"></polyline>
            </g>
        </g>
    </g>
</svg>