<svg width="42" height="32" viewBox="0 0 42 32" xmlns="http://www.w3.org/2000/svg"><title>5062ED31-2359-46F7-85D6-D122D8E62AF5</title><g stroke="#000" fill="none" fill-rule="evenodd" stroke-linecap="round" stroke-linejoin="round"><path d="M40.533 11.65a.535.535 0 0 0-.875-.181l-2.855 2.855c-.74.741-1.911.955-2.803.402-1.229-.762-1.406-2.456-.438-3.424l2.964-2.965a.536.536 0 0 0-.18-.876c-2.572-.997-5.469-.354-7.528 1.706-1.925 1.926-2.588 4.602-1.742 7.153a.534.534 0 0 1-.123.549l-9.642 9.644a1.064 1.064 0 0 0 0 1.504l2.671 2.671a1.063 1.063 0 0 0 1.504 0l9.635-9.636a.533.533 0 0 1 .548-.123c2.55.85 5.247.2 7.178-1.731 2.059-2.06 2.687-4.974 1.686-7.549z" stroke-width="2"/><g stroke-width="2"><path d="M26 27h2.5c1.38 0 2.5-1.129 2.5-2.51V21M3 10v14a3 3 0 0 0 3.003 3H17"/><path d="M28 10H3.007A2.003 2.003 0 0 1 1 8.003V2.997C1 1.894 1.9 1 3.002 1h28.996C33.104 1 34 1.896 34 3.003v3.14"/></g></g></svg>